<svg width="740" height="553" viewBox="0 0 740 553" fill="none" xmlns="http://www.w3.org/2000/svg">
<path fill-rule="evenodd" clip-rule="evenodd" d="M680.865 1H292.37C275.996 1 260.246 7.05361 248.364 17.9137L19.5735 227.027C-19.2257 262.489 6.81149 325.435 60.2796 325.435H327.501C341.951 325.435 348.988 308.423 338.502 298.838L277.418 243.008C245.959 214.255 267.071 163.217 310.423 163.217H517.983C534.357 163.217 550.108 157.164 561.99 146.304L691.867 27.5968C702.353 18.0124 695.316 1 680.865 1ZM59.1352 552H447.63C464.004 552 479.754 545.946 491.636 535.086L720.427 325.973C759.226 290.511 733.189 227.565 679.72 227.565H412.499C398.049 227.565 391.012 244.577 401.498 254.162L462.582 309.992C494.041 338.745 472.929 389.783 429.577 389.783H222.017C205.643 389.783 189.892 395.836 178.011 406.696L48.1335 525.403C37.6472 534.988 44.6843 552 59.1352 552Z" stroke="white" stroke-opacity="0.1"/>
</svg>
