<svg width="153" height="41" viewBox="0 0 153 41" fill="none" xmlns="http://www.w3.org/2000/svg">
<path d="M21.9928 30.5061C19.0093 29.398 15.9406 29.2275 13.1276 29.9947C11.167 30.5061 9.29162 31.5291 7.58676 32.8077L6.39334 33.8306L6.05237 34.1716L6.81955 34.8535C6.90479 34.8535 6.9048 34.9388 6.99005 35.024C7.16053 35.1945 7.33103 35.2797 7.58676 35.4502L8.0982 35.7912L8.60966 35.365C8.6949 35.2797 8.86539 35.1093 9.03587 35.024C10.5702 33.7454 12.2751 32.8929 14.0652 32.4667C16.3668 31.87 18.8388 31.9553 21.3109 32.8929C23.3567 33.6601 27.5336 34.5978 32.5629 32.4667L32.7334 32.3815L32.9892 32.1258C32.9892 32.0405 33.0744 32.0405 33.1597 31.9553C33.5859 31.4438 34.0121 30.9324 34.3531 30.3357L36.0579 27.6931L33.3301 29.2275C29.3237 31.4438 25.6583 31.87 21.9928 30.5061Z" fill="#180030"/>
<path d="M10.3145 21.3001C12.616 20.7034 15.0881 20.7887 17.5601 21.7264C20.2879 22.7493 27.2778 24.1984 35.1202 17.1232L36.3988 15.8446L36.4841 15.7593L36.825 15.4184L36.6545 14.9922C36.5693 14.6512 36.3988 14.225 36.2283 13.7988L35.8021 12.6053L34.9497 13.4578C34.8644 13.6283 34.694 13.7135 34.5235 13.884C30.7728 17.7199 24.9763 21.6411 18.3273 19.2543C15.3438 18.1462 12.2751 17.9757 9.46203 18.7429C6.73426 19.51 4.34745 20.9592 2.13113 23.005V22.9198L0.852485 24.2836C0.852485 24.3689 0.767257 24.3689 0.682014 24.4541L0.42627 24.7099L0.511518 25.0508C0.596761 25.477 0.767242 25.9033 0.852485 26.3295L1.36395 27.6934L2.21638 26.5852C2.30162 26.4147 2.4721 26.3295 2.55734 26.159C4.34745 24.5394 6.8195 22.2378 10.3145 21.3001Z" fill="#155EEF"/>
<path d="M2.04585 19.7656C4.00644 17.7198 6.22275 16.4411 8.60955 15.7592C10.9111 15.1625 13.3832 15.2477 15.8552 16.1854C23.5271 18.9984 30.176 14.3953 33.0743 11.9232L34.1825 10.8151L34.6087 10.4741L34.2677 9.96266C34.012 9.70693 33.8415 9.36595 33.5858 9.02498L33.0743 8.34302L32.4776 8.93973C32.3924 9.02497 32.2219 9.19545 32.1366 9.2807C28.5564 12.6904 23.0156 16.1854 16.7076 13.7986C13.7241 12.6904 10.6554 12.5199 7.84237 13.2871C6.05226 13.7986 4.3474 14.651 2.64254 15.7592L0.85243 17.2083C0.681944 17.3788 0.596701 17.464 0.426215 17.6345L0.255745 17.805V18.0607C0.170502 18.6574 0.170491 19.2541 0.0852482 19.7656L0 21.8967L1.44914 20.3623C1.61963 20.1918 1.79012 19.9361 2.04585 19.7656Z" fill="#155EEF"/>
<path d="M24.4648 36.3028L24.2943 36.8142L24.4648 36.3028C24.2091 36.2175 24.0386 36.1323 23.7829 36.047C20.7994 34.9389 17.7306 34.7684 14.9176 35.5356C14.3209 35.7061 13.7242 35.8766 13.1275 36.1323L11.0816 37.07L10.5702 37.3257L12.2751 37.9224C12.7865 38.0929 13.298 38.2634 13.8094 38.4339L14.0651 38.5191L14.3209 38.4339C14.5766 38.3486 14.8323 38.1781 15.0881 38.1781C15.2585 38.1781 15.429 38.0929 15.5995 38.0076C17.6454 37.4962 19.8617 37.4962 22.2485 38.2634C22.5042 38.3486 22.6747 38.4339 22.9304 38.5191L23.3566 38.6896L23.6124 38.6043C24.2091 38.4338 24.891 38.2634 25.4025 38.0076L27.7893 37.1552L25.3172 36.5585C25.0615 36.4733 24.7205 36.388 24.4648 36.3028Z" fill="#155EEF"/>
<path d="M37.507 18.6575L36.2284 19.9361C36.0579 20.1066 35.8874 20.2771 35.7169 20.4476C32.222 23.7721 26.5959 27.3523 20.2879 24.9654C17.3044 23.8573 14.2357 23.6868 11.4227 24.454C8.78013 25.2212 6.3933 26.5851 4.26223 28.6309L3.15408 29.8243L2.81311 30.2505L3.15408 30.762C3.40981 31.103 3.5803 31.3587 3.75079 31.6997L4.26223 32.4668L4.85894 31.6997C4.94418 31.6144 5.11466 31.4439 5.1999 31.3587C7.24574 29.1424 9.46205 27.7785 12.0193 27.0965C14.3209 26.4998 16.793 26.5851 19.265 27.5227C21.3961 28.2899 23.6124 28.5457 25.8287 28.2899C29.7499 27.8637 33.6711 25.6474 36.5693 23.1754C36.7398 23.0049 36.9103 22.9196 37.0808 22.7492L37.3365 22.4934V22.2377C37.3365 21.7262 37.4218 21.1295 37.4218 20.6181L37.507 18.6575Z" fill="#155EEF"/>
<path d="M5.11478 10.8153L4.85906 10.3039L5.11478 10.8153C5.62624 10.5596 6.22296 10.3891 6.73442 10.2186C9.03598 9.62191 11.508 9.70715 13.9801 10.6448C15.5997 11.2415 17.2193 11.4973 19.0094 11.4973C22.5896 11.4973 26.1698 10.2186 29.4943 7.74657L30.7729 6.72364L31.1991 6.38267L30.432 5.78596C30.1762 5.53023 29.8353 5.27451 29.4943 5.10403L28.9828 4.76306L28.5566 5.10403C28.3861 5.18927 28.3009 5.35975 28.1304 5.445C23.6125 8.85472 19.0947 9.7924 14.8325 8.17278C11.7638 7.06462 8.69499 6.80889 5.62624 7.74657C5.37051 7.83181 5.11479 7.91704 4.77381 8.00229L4.60334 8.08753L4.3476 8.34325C4.3476 8.4285 4.26237 8.42851 4.17713 8.51375C3.83616 9.02521 3.40992 9.45143 3.06895 9.96289L1.44934 12.4349L4.09188 11.071C4.51809 11.071 4.85905 10.9006 5.11478 10.8153Z" fill="#155EEF"/>
<path d="M12.1045 5.01865L12.3602 5.1039C13.4684 5.53012 15.1732 5.95633 17.3043 5.95633C19.5206 5.95633 21.6517 5.44487 23.7828 4.59244L26.4253 3.31379L24.6352 2.71711C24.1238 2.54662 23.6123 2.37614 23.0156 2.29089H22.7599L22.5042 2.37612C22.2484 2.46136 21.9927 2.63187 21.7369 2.71711C19.1797 3.65478 16.6224 3.82527 14.1503 3.14332C13.8946 3.05808 13.6389 2.97282 13.3831 2.88758L13.1274 2.80233L12.8717 2.88758C12.3602 3.05807 11.8488 3.22856 11.3373 3.48429L9.37671 4.33672L11.4226 4.93341C11.593 4.84816 11.8488 4.93341 12.1045 5.01865Z" fill="#155EEF"/>
<path d="M52.2368 28.9052H48.304L54.2964 11.5466H59.0259L65.0099 28.9052H61.0771L56.729 15.5133H56.5934L52.2368 28.9052ZM51.991 22.0821H61.2805V24.947H51.991V22.0821Z" fill="#180030"/>
<path d="M70.6421 11.5466V28.9052H67.0314V11.5466H70.6421Z" fill="#180030"/>
<path d="M80.4593 15.8863V18.5985H72.6191V15.8863H80.4593ZM74.399 12.7671H78.0098V24.9046C78.0098 25.238 78.0606 25.4979 78.1623 25.6844C78.264 25.8652 78.4053 25.9923 78.5861 26.0658C78.7726 26.1392 78.9873 26.176 79.2303 26.176C79.3998 26.176 79.5693 26.1618 79.7388 26.1336C79.9083 26.0997 80.0383 26.0742 80.1287 26.0573L80.6966 28.7441C80.5158 28.8007 80.2615 28.8656 79.9338 28.9391C79.606 29.0182 79.2077 29.0662 78.7387 29.0832C77.8685 29.1171 77.1057 29.0012 76.4502 28.7357C75.8004 28.4701 75.2946 28.0576 74.933 27.4982C74.5714 26.9388 74.3934 26.2325 74.399 25.3792V12.7671Z" fill="#180030"/>
<path d="M87.5684 27.9644V15.9625H90.6028V27.9644H87.5684ZM83.0847 23.4806V20.4463H95.0865V23.4806H83.0847Z" fill="#180030"/>
<path d="M108.122 16.5389C108.055 15.8552 107.764 15.324 107.249 14.9454C106.735 14.5668 106.037 14.3775 105.156 14.3775C104.557 14.3775 104.051 14.4623 103.639 14.6318C103.226 14.7957 102.91 15.0245 102.689 15.3184C102.475 15.6122 102.367 15.9456 102.367 16.3185C102.356 16.6293 102.421 16.9005 102.562 17.1322C102.709 17.3639 102.91 17.5645 103.164 17.734C103.418 17.8979 103.712 18.0419 104.045 18.1663C104.379 18.2849 104.735 18.3866 105.113 18.4714L106.673 18.8443C107.43 19.0138 108.125 19.2399 108.758 19.5224C109.391 19.8049 109.939 20.1524 110.402 20.5649C110.866 20.9774 111.225 21.4634 111.479 22.0228C111.739 22.5822 111.872 23.2235 111.877 23.9468C111.872 25.0091 111.6 25.9302 111.064 26.7099C110.532 27.4841 109.764 28.0859 108.758 28.5153C107.758 28.9391 106.552 29.151 105.139 29.151C103.738 29.151 102.517 28.9363 101.477 28.5068C100.443 28.0774 99.6352 27.4417 99.0532 26.5998C98.4768 25.7522 98.1745 24.704 98.1463 23.4552H101.698C101.737 24.0372 101.904 24.5232 102.198 24.9131C102.497 25.2973 102.896 25.5883 103.393 25.7861C103.896 25.9782 104.464 26.0742 105.097 26.0742C105.718 26.0742 106.258 25.9838 106.715 25.803C107.179 25.6222 107.538 25.3707 107.792 25.0487C108.046 24.7266 108.173 24.3565 108.173 23.9383C108.173 23.5484 108.057 23.2207 107.826 22.9551C107.6 22.6895 107.266 22.4635 106.826 22.2771C106.39 22.0906 105.857 21.9211 105.224 21.7685L103.334 21.2939C101.87 20.9379 100.714 20.3813 99.8669 19.6241C99.0193 18.8669 98.5983 17.847 98.604 16.5643C98.5983 15.5133 98.878 14.5951 99.4431 13.8097C100.014 13.0242 100.796 12.4111 101.791 11.9704C102.785 11.5297 103.916 11.3093 105.181 11.3093C106.47 11.3093 107.594 11.5297 108.555 11.9704C109.521 12.4111 110.272 13.0242 110.809 13.8097C111.346 14.5951 111.623 15.5048 111.64 16.5389H108.122Z" fill="#180030"/>
<path d="M117.889 21.3786V28.9052H114.278V11.5466H117.787V18.1832H117.94C118.233 17.4147 118.708 16.8129 119.364 16.3779C120.019 15.9371 120.841 15.7167 121.83 15.7167C122.734 15.7167 123.522 15.9145 124.195 16.31C124.873 16.6999 125.398 17.2622 125.771 17.9967C126.15 18.7257 126.336 19.5987 126.331 20.6158V28.9052H122.72V21.26C122.726 20.4576 122.522 19.8332 122.11 19.3868C121.703 18.9404 121.132 18.7172 120.398 18.7172C119.906 18.7172 119.471 18.8217 119.092 19.0308C118.719 19.2399 118.426 19.545 118.211 19.9462C118.002 20.3417 117.894 20.8192 117.889 21.3786Z" fill="#180030"/>
<path d="M129.172 28.9052V15.8863H132.783V28.9052H129.172ZM130.986 14.208C130.449 14.208 129.989 14.03 129.604 13.6741C129.226 13.3124 129.037 12.8801 129.037 12.3772C129.037 11.88 129.226 11.4534 129.604 11.0974C129.989 10.7358 130.449 10.5549 130.986 10.5549C131.523 10.5549 131.981 10.7358 132.359 11.0974C132.743 11.4534 132.935 11.88 132.935 12.3772C132.935 12.8801 132.743 13.3124 132.359 13.6741C131.981 14.03 131.523 14.208 130.986 14.208Z" fill="#180030"/>
<path d="M143.967 15.8863V18.5985H134.641V15.8863H143.967ZM136.481 28.9052V14.9454C136.481 14.0018 136.664 13.2192 137.031 12.5976C137.404 11.9761 137.913 11.5099 138.557 11.1991C139.201 10.8883 139.933 10.7329 140.752 10.7329C141.306 10.7329 141.812 10.7753 142.27 10.8601C142.733 10.9448 143.078 11.0211 143.304 11.0889L142.659 13.8012C142.518 13.756 142.343 13.7136 142.134 13.6741C141.931 13.6345 141.721 13.6147 141.507 13.6147C140.976 13.6147 140.605 13.739 140.396 13.9877C140.187 14.2306 140.083 14.5725 140.083 15.0132V28.9052H136.481Z" fill="#180030"/>
<path d="M151.807 15.8863V18.5985H143.967V15.8863H151.807ZM145.747 12.7671H149.357V24.9046C149.357 25.238 149.408 25.4979 149.51 25.6844C149.612 25.8652 149.753 25.9923 149.934 26.0658C150.12 26.1392 150.335 26.176 150.578 26.176C150.748 26.176 150.917 26.1618 151.087 26.1336C151.256 26.0997 151.386 26.0742 151.476 26.0573L152.044 28.7441C151.864 28.8007 151.609 28.8656 151.282 28.9391C150.954 29.0182 150.555 29.0662 150.086 29.0832C149.216 29.1171 148.453 29.0012 147.798 28.7357C147.148 28.4701 146.642 28.0576 146.281 27.4982C145.919 26.9388 145.741 26.2325 145.747 25.3792V12.7671Z" fill="#180030"/>
</svg>
