<svg width="169" height="41" viewBox="0 0 169 41" fill="none" xmlns="http://www.w3.org/2000/svg">
<path d="M30.9488 9.51575C30.5804 9.14731 30.2119 8.77887 29.8435 8.41043C28.7382 7.23143 27.5592 6.05244 26.0854 5.31556C24.3906 4.43131 22.5484 4.65237 20.7062 4.65237C17.9061 4.65237 10.9058 4.65237 6.7793 4.65237L9.57942 8.41043C14.6639 8.41043 22.6221 8.41043 26.3065 8.41043C27.8539 8.41043 29.1803 8.70518 30.433 9.51575C30.654 9.58943 30.8751 9.58943 30.9488 9.51575Z" fill="#180030"/>
<path d="M34.0436 15.5582C33.6752 15.1898 33.3067 14.8213 32.9383 14.4529C31.833 13.2739 30.654 12.0949 29.1803 11.358C27.4854 10.4738 25.6433 10.6949 23.8011 10.6949C21.3694 10.6949 15.5481 10.6949 11.4216 10.6949L14.2217 14.4529C19.2324 14.4529 26.0854 14.4529 29.475 14.4529C31.0224 14.4529 32.3488 14.7477 33.6015 15.5582C33.7489 15.6319 33.8962 15.6319 34.0436 15.5582Z" fill="#180030"/>
<path d="M37.5069 21.453C37.1385 21.0846 36.7701 20.7161 36.4016 20.3477C35.2963 19.1687 34.1173 17.9897 32.6436 17.2528C30.9487 16.3686 29.1066 16.5896 27.2644 16.5896C24.9801 16.5896 19.9693 16.5896 15.9165 16.5896L18.7166 20.3477C23.58 20.3477 29.7698 20.3477 32.8646 20.3477C34.4121 20.3477 35.7384 20.6424 36.9911 21.453C37.2122 21.5267 37.3596 21.6004 37.5069 21.453Z" fill="#180030"/>
<path d="M6.48456 31.4008C6.853 31.7693 7.22143 32.1377 7.58987 32.5062C8.69518 33.6852 9.87418 34.8641 11.3479 35.601C13.0427 36.4853 14.8849 36.2642 16.7271 36.2642H30.6541L27.8539 32.5062C22.7695 32.5062 14.8112 32.5062 11.1269 32.5062C9.57943 32.5062 8.25306 32.2114 7.00037 31.4008C6.77931 31.3272 6.63193 31.3272 6.48456 31.4008Z" fill="#180030"/>
<path d="M3.38965 25.3586C3.75809 25.727 4.12652 26.0955 4.49496 26.4639C5.60027 27.6429 6.77927 28.8219 8.25302 29.5588C9.94783 30.4431 11.79 30.222 13.6322 30.222H26.0117L23.2116 26.4639C18.2008 26.4639 11.3479 26.4639 7.95827 26.4639C6.41083 26.4639 5.08445 26.1692 3.83177 25.3586C3.68439 25.2849 3.53702 25.2849 3.38965 25.3586Z" fill="#180030"/>
<path d="M0 19.3897C0.368437 19.7582 0.736875 20.1266 1.10531 20.4951C2.21062 21.6741 3.38963 22.8531 4.86338 23.5899C6.55819 24.4742 8.40037 24.2531 10.2426 24.2531H21.5904L18.7903 20.4951C13.9269 20.4951 7.73719 20.4951 4.64231 20.4951C3.09488 20.4951 1.7685 20.2003 0.51581 19.3897C0.294748 19.3161 0.147375 19.3161 0 19.3897Z" fill="#180030"/>
<path d="M45.9733 11.9408V28.9826H49.7205V21.9415H56.8571V19.0296H49.7205V15.0914H57.955V11.9408H45.9733Z" fill="#180030"/>
<path d="M67.3536 21.488H61.8401C61.856 21.2493 61.9038 20.9788 61.9833 20.6765C62.0788 20.3742 62.23 20.0878 62.4368 19.8173C62.6596 19.5467 62.946 19.324 63.2961 19.1489C63.662 18.958 64.1155 18.8625 64.6565 18.8625C65.484 18.8625 66.0966 19.0853 66.4944 19.5308C66.9081 19.9764 67.1945 20.6288 67.3536 21.488ZM61.8401 23.6361H70.7429C70.8065 22.6814 70.727 21.7665 70.5042 20.8913C70.2814 20.0162 69.9155 19.2365 69.4063 18.5522C68.913 17.868 68.2765 17.327 67.4968 16.9292C66.7171 16.5155 65.8022 16.3086 64.752 16.3086C63.8132 16.3086 62.954 16.4757 62.1743 16.8099C61.4105 17.144 60.7501 17.6055 60.1932 18.1942C59.6363 18.7671 59.2067 19.4513 58.9043 20.2469C58.602 21.0425 58.4508 21.9017 58.4508 22.8246C58.4508 23.7793 58.5941 24.6545 58.8805 25.4501C59.1828 26.2457 59.6045 26.9299 60.1455 27.5028C60.6865 28.0756 61.3468 28.5211 62.1265 28.8394C62.9062 29.1417 63.7814 29.2929 64.752 29.2929C66.1523 29.2929 67.3457 28.9746 68.3322 28.3381C69.3188 27.7017 70.0507 26.6435 70.5281 25.1637H67.5446C67.4332 25.5456 67.1309 25.9116 66.6376 26.2616C66.1443 26.5958 65.5556 26.7629 64.8713 26.7629C63.9166 26.7629 63.1847 26.5162 62.6755 26.0229C62.1663 25.5297 61.8878 24.7341 61.8401 23.6361Z" fill="#180030"/>
<path d="M71.8938 20.4378C71.9415 19.6422 72.1404 18.9819 72.4905 18.4568C72.8405 17.9317 73.2861 17.51 73.8271 17.1918C74.3681 16.8735 74.9728 16.6508 75.6411 16.5235C76.3253 16.3803 77.0095 16.3086 77.6937 16.3086C78.3143 16.3086 78.9428 16.3564 79.5793 16.4519C80.2158 16.5314 80.7966 16.6985 81.3217 16.9531C81.8467 17.2077 82.2764 17.5657 82.6105 18.0271C82.9447 18.4727 83.1118 19.0694 83.1118 19.8173V26.2378C83.1118 26.7947 83.1436 27.3277 83.2072 27.8369C83.2709 28.3461 83.3823 28.728 83.5414 28.9826H80.1044C80.0407 28.7916 79.985 28.6007 79.9373 28.4097C79.9055 28.2029 79.8816 27.996 79.8657 27.7892C79.3247 28.3461 78.6882 28.7359 77.9563 28.9587C77.2243 29.1815 76.4764 29.2929 75.7127 29.2929C75.1239 29.2929 74.575 29.2213 74.0658 29.0781C73.5566 28.9348 73.111 28.7121 72.7292 28.4097C72.3473 28.1074 72.0449 27.7255 71.8222 27.2641C71.6153 26.8026 71.5119 26.2537 71.5119 25.6172C71.5119 24.9171 71.6312 24.3442 71.8699 23.8987C72.1245 23.4372 72.4427 23.0713 72.8246 22.8008C73.2224 22.5303 73.668 22.3314 74.1612 22.2041C74.6704 22.0608 75.1796 21.9495 75.6888 21.8699C76.198 21.7903 76.6992 21.7267 77.1925 21.679C77.6858 21.6312 78.1233 21.5596 78.5052 21.4641C78.8871 21.3687 79.1894 21.2334 79.4122 21.0584C79.635 20.8674 79.7384 20.5969 79.7225 20.2469C79.7225 19.8809 79.6588 19.5945 79.5315 19.3876C79.4202 19.1649 79.261 18.9978 79.0542 18.8864C78.8632 18.7591 78.6325 18.6795 78.362 18.6477C78.1074 18.6 77.829 18.5761 77.5266 18.5761C76.8583 18.5761 76.3332 18.7193 75.9513 19.0057C75.5695 19.2922 75.3467 19.7695 75.283 20.4378H71.8938ZM79.7225 22.944C79.5793 23.0713 79.3963 23.1747 79.1735 23.2542C78.9667 23.3179 78.7359 23.3736 78.4814 23.4213C78.2427 23.4691 77.9881 23.5088 77.7176 23.5407C77.4471 23.5725 77.1766 23.6123 76.9061 23.66C76.6515 23.7077 76.3969 23.7714 76.1423 23.851C75.9036 23.9305 75.6888 24.0419 75.4978 24.1851C75.3228 24.3124 75.1796 24.4795 75.0682 24.6863C74.9568 24.8932 74.9012 25.1557 74.9012 25.474C74.9012 25.7763 74.9568 26.0309 75.0682 26.2378C75.1796 26.4446 75.3308 26.6117 75.5217 26.739C75.7127 26.8504 75.9354 26.9299 76.19 26.9777C76.4446 27.0254 76.7072 27.0493 76.9777 27.0493C77.646 27.0493 78.1631 26.9379 78.5291 26.7151C78.8951 26.4923 79.1656 26.2298 79.3406 25.9275C79.5156 25.6092 79.6191 25.291 79.6509 24.9727C79.6986 24.6545 79.7225 24.3999 79.7225 24.209V22.944Z" fill="#180030"/>
<path d="M89.3227 16.6428V12.9433H85.9334V16.6428H83.8808V18.9103H85.9334V26.19C85.9334 26.8106 86.0368 27.3118 86.2437 27.6937C86.4505 28.0756 86.729 28.37 87.0791 28.5768C87.445 28.7837 87.8588 28.9189 88.3202 28.9826C88.7976 29.0621 89.2988 29.1019 89.8239 29.1019C90.158 29.1019 90.5002 29.094 90.8502 29.0781C91.2003 29.0621 91.5185 29.0303 91.8049 28.9826V26.3571C91.6458 26.3889 91.4787 26.4128 91.3037 26.4287C91.1287 26.4446 90.9457 26.4526 90.7547 26.4526C90.1819 26.4526 89.8 26.3571 89.6091 26.1661C89.4181 25.9752 89.3227 25.5933 89.3227 25.0205V18.9103H91.8049V16.6428H89.3227Z" fill="#180030"/>
<path d="M92.7015 11.9408V28.9826H96.0907V22.5143C96.0907 21.2573 96.2976 20.3583 96.7113 19.8173C97.125 19.2603 97.7933 18.9819 98.7162 18.9819C99.5277 18.9819 100.093 19.2365 100.411 19.7456C100.729 20.2389 100.888 20.9947 100.888 22.0131V28.9826H104.277V21.3925C104.277 20.6288 104.206 19.9366 104.063 19.316C103.935 18.6795 103.705 18.1465 103.371 17.7169C103.036 17.2713 102.575 16.9292 101.986 16.6905C101.413 16.4359 100.673 16.3086 99.7664 16.3086C99.1299 16.3086 98.4776 16.4757 97.8092 16.8099C97.1409 17.1281 96.592 17.6453 96.1624 18.3613H96.0907V11.9408H92.7015Z" fill="#180030"/>
<path d="M114.44 21.488H108.926C108.942 21.2493 108.99 20.9788 109.07 20.6765C109.165 20.3742 109.316 20.0878 109.523 19.8173C109.746 19.5467 110.032 19.324 110.382 19.1489C110.748 18.958 111.202 18.8625 111.743 18.8625C112.57 18.8625 113.183 19.0853 113.581 19.5308C113.994 19.9764 114.281 20.6288 114.44 21.488ZM108.926 23.6361H117.829C117.893 22.6814 117.813 21.7665 117.59 20.8913C117.368 20.0162 117.002 19.2365 116.493 18.5522C115.999 17.868 115.363 17.327 114.583 16.9292C113.803 16.5155 112.888 16.3086 111.838 16.3086C110.899 16.3086 110.04 16.4757 109.261 16.8099C108.497 17.144 107.836 17.6055 107.279 18.1942C106.723 18.7671 106.293 19.4513 105.991 20.2469C105.688 21.0425 105.537 21.9017 105.537 22.8246C105.537 23.7793 105.68 24.6545 105.967 25.4501C106.269 26.2457 106.691 26.9299 107.232 27.5028C107.773 28.0756 108.433 28.5211 109.213 28.8394C109.992 29.1417 110.868 29.2929 111.838 29.2929C113.239 29.2929 114.432 28.9746 115.418 28.3381C116.405 27.7017 117.137 26.6435 117.614 25.1637H114.631C114.519 25.5456 114.217 25.9116 113.724 26.2616C113.231 26.5958 112.642 26.7629 111.958 26.7629C111.003 26.7629 110.271 26.5162 109.762 26.0229C109.253 25.5297 108.974 24.7341 108.926 23.6361Z" fill="#180030"/>
<path d="M119.123 16.6428V28.9826H122.512V23.4213C122.512 22.8644 122.568 22.3473 122.68 21.8699C122.791 21.3925 122.974 20.9788 123.229 20.6288C123.499 20.2628 123.849 19.9764 124.279 19.7695C124.708 19.5627 125.233 19.4592 125.854 19.4592C126.061 19.4592 126.276 19.4751 126.498 19.507C126.721 19.5229 126.912 19.5467 127.071 19.5786V16.428C126.801 16.3484 126.554 16.3086 126.331 16.3086C125.902 16.3086 125.488 16.3723 125.09 16.4996C124.692 16.6269 124.319 16.8099 123.968 17.0486C123.618 17.2713 123.308 17.5498 123.038 17.8839C122.767 18.2022 122.552 18.5522 122.393 18.9341H122.345V16.6428H119.123Z" fill="#180030"/>
<path d="M131.789 25.832V15.0914H134.463C135.385 15.0914 136.157 15.2266 136.778 15.4971C137.414 15.7517 137.923 16.1257 138.305 16.6189C138.687 17.1122 138.958 17.7089 139.117 18.409C139.292 19.0933 139.379 19.865 139.379 20.7242C139.379 21.663 139.26 22.4586 139.021 23.111C138.783 23.7634 138.464 24.2965 138.067 24.7102C137.669 25.108 137.215 25.3944 136.706 25.5694C136.197 25.7445 135.672 25.832 135.131 25.832H131.789ZM128.042 11.9408V28.9826H135.393C136.698 28.9826 137.828 28.7678 138.783 28.3381C139.753 27.8926 140.557 27.2879 141.193 26.5242C141.846 25.7604 142.331 24.8534 142.649 23.8032C142.968 22.753 143.127 21.6074 143.127 20.3662C143.127 18.95 142.928 17.7169 142.53 16.6667C142.148 15.6165 141.607 14.7413 140.907 14.0412C140.223 13.3411 139.403 12.816 138.449 12.4659C137.51 12.1158 136.491 11.9408 135.393 11.9408H128.042Z" fill="#180030"/>
<path d="M152.965 21.488H147.452C147.468 21.2493 147.515 20.9788 147.595 20.6765C147.69 20.3742 147.842 20.0878 148.048 19.8173C148.271 19.5467 148.558 19.324 148.908 19.1489C149.274 18.958 149.727 18.8625 150.268 18.8625C151.096 18.8625 151.708 19.0853 152.106 19.5308C152.52 19.9764 152.806 20.6288 152.965 21.488ZM147.452 23.6361H156.355C156.418 22.6814 156.339 21.7665 156.116 20.8913C155.893 20.0162 155.527 19.2365 155.018 18.5522C154.525 17.868 153.888 17.327 153.109 16.9292C152.329 16.5155 151.414 16.3086 150.364 16.3086C149.425 16.3086 148.566 16.4757 147.786 16.8099C147.022 17.144 146.362 17.6055 145.805 18.1942C145.248 18.7671 144.818 19.4513 144.516 20.2469C144.214 21.0425 144.063 21.9017 144.063 22.8246C144.063 23.7793 144.206 24.6545 144.492 25.4501C144.794 26.2457 145.216 26.9299 145.757 27.5028C146.298 28.0756 146.959 28.5211 147.738 28.8394C148.518 29.1417 149.393 29.2929 150.364 29.2929C151.764 29.2929 152.957 28.9746 153.944 28.3381C154.93 27.7017 155.662 26.6435 156.14 25.1637H153.156C153.045 25.5456 152.743 25.9116 152.249 26.2616C151.756 26.5958 151.167 26.7629 150.483 26.7629C149.528 26.7629 148.796 26.5162 148.287 26.0229C147.778 25.5297 147.5 24.7341 147.452 23.6361Z" fill="#180030"/>
<path d="M164.475 28.9826L168.652 16.6428H165.286L162.685 25.0682H162.637L160.035 16.6428H156.479L160.704 28.9826H164.475Z" fill="#180030"/>
</svg>
