<svg width="198" height="48" viewBox="0 0 198 48" fill="none" xmlns="http://www.w3.org/2000/svg">
<path d="M36.3068 11.1631C35.8745 10.7309 35.4423 10.2987 35.0101 9.86648C33.7134 8.48337 32.3303 7.10027 30.6015 6.23583C28.6132 5.1985 26.4522 5.45783 24.2911 5.45783C21.0062 5.45783 12.794 5.45783 7.95312 5.45783L11.238 9.86648C17.2026 9.86648 26.5386 9.86648 30.8608 9.86648C32.6761 9.86648 34.2321 10.2123 35.7017 11.1631C35.961 11.2496 36.2203 11.2496 36.3068 11.1631Z" fill="white"/>
<path d="M39.9367 18.2516C39.5045 17.8194 39.0723 17.3872 38.6401 16.955C37.3434 15.5719 35.9603 14.1888 34.2315 13.3243C32.2432 12.287 30.0821 12.5463 27.921 12.5463C25.0684 12.5463 18.2393 12.5463 13.3984 12.5463L16.6833 16.955C22.5615 16.955 30.6008 16.955 34.5772 16.955C36.3925 16.955 37.9485 17.3007 39.4181 18.2516C39.591 18.3381 39.7639 18.3381 39.9367 18.2516Z" fill="white"/>
<path d="M44 25.1669C43.5677 24.7347 43.1355 24.3025 42.7033 23.8703C41.4066 22.4872 40.0235 21.104 38.2947 20.2396C36.3065 19.2023 34.1453 19.4616 31.9842 19.4616C29.3045 19.4616 23.4263 19.4616 18.6719 19.4616L21.9567 23.8703C27.662 23.8703 34.9234 23.8703 38.554 23.8703C40.3693 23.8703 41.9253 24.216 43.3949 25.1669C43.6542 25.2534 43.8271 25.3398 44 25.1669Z" fill="white"/>
<path d="M7.60742 36.8369C8.03964 37.2691 8.47186 37.7013 8.90408 38.1335C10.2007 39.5166 11.5838 40.8997 13.3127 41.7642C15.3009 42.8015 17.462 42.5422 19.6231 42.5422H35.9611L32.6762 38.1335C26.7115 38.1335 17.3756 38.1335 13.0534 38.1335C11.2381 38.1335 9.68208 37.7878 8.21253 36.8369C7.9532 36.7504 7.78031 36.7504 7.60742 36.8369Z" fill="white"/>
<path d="M3.97656 29.7487C4.40878 30.1809 4.841 30.6131 5.27322 31.0453C6.56988 32.4284 7.95298 33.8116 9.68186 34.676C11.6701 35.7133 13.8312 35.454 15.9923 35.454H30.5149L27.23 31.0453C21.3518 31.0453 13.3125 31.0453 9.33609 31.0453C7.52076 31.0453 5.96477 30.6996 4.49522 29.7487C4.32233 29.6622 4.14945 29.6622 3.97656 29.7487Z" fill="white"/>
<path d="M0 22.7465C0.43222 23.1787 0.86444 23.6109 1.29666 24.0431C2.59332 25.4262 3.97643 26.8094 5.70531 27.6738C7.69352 28.7111 9.85461 28.4518 12.0157 28.4518H25.3281L22.0432 24.0431C16.3379 24.0431 9.07662 24.0431 5.44598 24.0431C3.63065 24.0431 2.07465 23.6974 0.605106 22.7465C0.345773 22.66 0.172888 22.66 0 22.7465Z" fill="white"/>
<path d="M53.9316 14.008V34H58.3276V25.74H66.6996V22.324H58.3276V17.704H67.9876V14.008H53.9316Z" fill="white"/>
<path d="M79.0133 25.208H72.5453C72.564 24.928 72.62 24.6107 72.7133 24.256C72.8253 23.9013 73.0026 23.5653 73.2453 23.248C73.5066 22.9307 73.8426 22.6693 74.2533 22.464C74.6826 22.24 75.2146 22.128 75.8493 22.128C76.82 22.128 77.5386 22.3893 78.0053 22.912C78.4906 23.4347 78.8266 24.2 79.0133 25.208ZM72.5453 27.728H82.9893C83.064 26.608 82.9706 25.5347 82.7093 24.508C82.448 23.4813 82.0186 22.5667 81.4213 21.764C80.8426 20.9613 80.096 20.3267 79.1813 19.86C78.2666 19.3747 77.1933 19.132 75.9613 19.132C74.86 19.132 73.852 19.328 72.9373 19.72C72.0413 20.112 71.2666 20.6533 70.6133 21.344C69.96 22.016 69.456 22.8187 69.1013 23.752C68.7466 24.6853 68.5693 25.6933 68.5693 26.776C68.5693 27.896 68.7373 28.9227 69.0733 29.856C69.428 30.7893 69.9226 31.592 70.5573 32.264C71.192 32.936 71.9666 33.4587 72.8813 33.832C73.796 34.1867 74.8226 34.364 75.9613 34.364C77.604 34.364 79.004 33.9907 80.1613 33.244C81.3186 32.4973 82.1773 31.256 82.7373 29.52H79.2373C79.1066 29.968 78.752 30.3973 78.1733 30.808C77.5946 31.2 76.904 31.396 76.1013 31.396C74.9813 31.396 74.1226 31.1067 73.5253 30.528C72.928 29.9493 72.6013 29.016 72.5453 27.728Z" fill="white"/>
<path d="M84.3394 23.976C84.3954 23.0427 84.6288 22.268 85.0394 21.652C85.4501 21.036 85.9728 20.5413 86.6074 20.168C87.2421 19.7947 87.9514 19.5333 88.7354 19.384C89.5381 19.216 90.3408 19.132 91.1434 19.132C91.8714 19.132 92.6088 19.188 93.3554 19.3C94.1021 19.3933 94.7834 19.5893 95.3994 19.888C96.0154 20.1867 96.5194 20.6067 96.9114 21.148C97.3034 21.6707 97.4994 22.3707 97.4994 23.248V30.78C97.4994 31.4333 97.5368 32.0587 97.6114 32.656C97.6861 33.2533 97.8168 33.7013 98.0034 34H93.9714C93.8968 33.776 93.8314 33.552 93.7754 33.328C93.7381 33.0853 93.7101 32.8427 93.6914 32.6C93.0568 33.2533 92.3101 33.7107 91.4514 33.972C90.5928 34.2333 89.7154 34.364 88.8194 34.364C88.1288 34.364 87.4848 34.28 86.8874 34.112C86.2901 33.944 85.7674 33.6827 85.3194 33.328C84.8714 32.9733 84.5168 32.5253 84.2554 31.984C84.0128 31.4427 83.8914 30.7987 83.8914 30.052C83.8914 29.2307 84.0314 28.5587 84.3114 28.036C84.6101 27.4947 84.9834 27.0653 85.4314 26.748C85.8981 26.4307 86.4208 26.1973 86.9994 26.048C87.5968 25.88 88.1941 25.7493 88.7914 25.656C89.3888 25.5627 89.9768 25.488 90.5554 25.432C91.1341 25.376 91.6474 25.292 92.0954 25.18C92.5434 25.068 92.8981 24.9093 93.1594 24.704C93.4208 24.48 93.5421 24.1627 93.5234 23.752C93.5234 23.3227 93.4488 22.9867 93.2994 22.744C93.1688 22.4827 92.9821 22.2867 92.7394 22.156C92.5154 22.0067 92.2448 21.9133 91.9274 21.876C91.6288 21.82 91.3021 21.792 90.9474 21.792C90.1634 21.792 89.5474 21.96 89.0994 22.296C88.6514 22.632 88.3901 23.192 88.3154 23.976H84.3394ZM93.5234 26.916C93.3554 27.0653 93.1408 27.1867 92.8794 27.28C92.6368 27.3547 92.3661 27.42 92.0674 27.476C91.7874 27.532 91.4888 27.5787 91.1714 27.616C90.8541 27.6533 90.5368 27.7 90.2194 27.756C89.9208 27.812 89.6221 27.8867 89.3234 27.98C89.0434 28.0733 88.7914 28.204 88.5674 28.372C88.3621 28.5213 88.1941 28.7173 88.0634 28.96C87.9328 29.2027 87.8674 29.5107 87.8674 29.884C87.8674 30.2387 87.9328 30.5373 88.0634 30.78C88.1941 31.0227 88.3714 31.2187 88.5954 31.368C88.8194 31.4987 89.0808 31.592 89.3794 31.648C89.6781 31.704 89.9861 31.732 90.3034 31.732C91.0874 31.732 91.6941 31.6013 92.1234 31.34C92.5528 31.0787 92.8701 30.7707 93.0754 30.416C93.2808 30.0427 93.4021 29.6693 93.4394 29.296C93.4954 28.9227 93.5234 28.624 93.5234 28.4V26.916Z" fill="white"/>
<path d="M104.786 19.524V15.184H100.81V19.524H98.4015V22.184H100.81V30.724C100.81 31.452 100.931 32.04 101.174 32.488C101.416 32.936 101.743 33.2813 102.154 33.524C102.583 33.7667 103.068 33.9253 103.61 34C104.17 34.0933 104.758 34.14 105.374 34.14C105.766 34.14 106.167 34.1307 106.578 34.112C106.988 34.0933 107.362 34.056 107.698 34V30.92C107.511 30.9573 107.315 30.9853 107.11 31.004C106.904 31.0227 106.69 31.032 106.466 31.032C105.794 31.032 105.346 30.92 105.122 30.696C104.898 30.472 104.786 30.024 104.786 29.352V22.184H107.698V19.524H104.786Z" fill="white"/>
<path d="M108.749 14.008V34H112.725V26.412C112.725 24.9373 112.968 23.8827 113.453 23.248C113.939 22.5947 114.723 22.268 115.805 22.268C116.757 22.268 117.42 22.5667 117.793 23.164C118.167 23.7427 118.353 24.6293 118.353 25.824V34H122.329V25.096C122.329 24.2 122.245 23.388 122.077 22.66C121.928 21.9133 121.657 21.288 121.265 20.784C120.873 20.2613 120.332 19.86 119.641 19.58C118.969 19.2813 118.101 19.132 117.037 19.132C116.291 19.132 115.525 19.328 114.741 19.72C113.957 20.0933 113.313 20.7 112.809 21.54H112.725V14.008H108.749Z" fill="white"/>
<path d="M134.251 25.208H127.783C127.802 24.928 127.858 24.6107 127.951 24.256C128.063 23.9013 128.24 23.5653 128.483 23.248C128.744 22.9307 129.08 22.6693 129.491 22.464C129.92 22.24 130.452 22.128 131.087 22.128C132.058 22.128 132.776 22.3893 133.243 22.912C133.728 23.4347 134.064 24.2 134.251 25.208ZM127.783 27.728H138.227C138.302 26.608 138.208 25.5347 137.947 24.508C137.686 23.4813 137.256 22.5667 136.659 21.764C136.08 20.9613 135.334 20.3267 134.419 19.86C133.504 19.3747 132.431 19.132 131.199 19.132C130.098 19.132 129.09 19.328 128.175 19.72C127.279 20.112 126.504 20.6533 125.851 21.344C125.198 22.016 124.694 22.8187 124.339 23.752C123.984 24.6853 123.807 25.6933 123.807 26.776C123.807 27.896 123.975 28.9227 124.311 29.856C124.666 30.7893 125.16 31.592 125.795 32.264C126.43 32.936 127.204 33.4587 128.119 33.832C129.034 34.1867 130.06 34.364 131.199 34.364C132.842 34.364 134.242 33.9907 135.399 33.244C136.556 32.4973 137.415 31.256 137.975 29.52H134.475C134.344 29.968 133.99 30.3973 133.411 30.808C132.832 31.2 132.142 31.396 131.339 31.396C130.219 31.396 129.36 31.1067 128.763 30.528C128.166 29.9493 127.839 29.016 127.783 27.728Z" fill="white"/>
<path d="M139.745 19.524V34H143.721V27.476C143.721 26.8227 143.786 26.216 143.917 25.656C144.048 25.096 144.262 24.6107 144.561 24.2C144.878 23.7707 145.289 23.4347 145.793 23.192C146.297 22.9493 146.913 22.828 147.641 22.828C147.884 22.828 148.136 22.8467 148.397 22.884C148.658 22.9027 148.882 22.9307 149.069 22.968V19.272C148.752 19.1787 148.462 19.132 148.201 19.132C147.697 19.132 147.212 19.2067 146.745 19.356C146.278 19.5053 145.84 19.72 145.429 20C145.018 20.2613 144.654 20.588 144.337 20.98C144.02 21.3533 143.768 21.764 143.581 22.212H143.525V19.524H139.745Z" fill="white"/>
<path d="M154.604 30.304V17.704H157.74C158.823 17.704 159.728 17.8627 160.456 18.18C161.203 18.4787 161.8 18.9173 162.248 19.496C162.696 20.0747 163.013 20.7747 163.2 21.596C163.405 22.3987 163.508 23.304 163.508 24.312C163.508 25.4133 163.368 26.3467 163.088 27.112C162.808 27.8773 162.435 28.5027 161.968 28.988C161.501 29.4547 160.969 29.7907 160.372 29.996C159.775 30.2013 159.159 30.304 158.524 30.304H154.604ZM150.208 14.008V34H158.832C160.363 34 161.688 33.748 162.808 33.244C163.947 32.7213 164.889 32.012 165.636 31.116C166.401 30.22 166.971 29.156 167.344 27.924C167.717 26.692 167.904 25.348 167.904 23.892C167.904 22.2307 167.671 20.784 167.204 19.552C166.756 18.32 166.121 17.2933 165.3 16.472C164.497 15.6507 163.536 15.0347 162.416 14.624C161.315 14.2133 160.12 14.008 158.832 14.008H150.208Z" fill="white"/>
<path d="M179.446 25.208H172.978C172.996 24.928 173.052 24.6107 173.146 24.256C173.258 23.9013 173.435 23.5653 173.678 23.248C173.939 22.9307 174.275 22.6693 174.686 22.464C175.115 22.24 175.647 22.128 176.282 22.128C177.252 22.128 177.971 22.3893 178.438 22.912C178.923 23.4347 179.259 24.2 179.446 25.208ZM172.978 27.728H183.422C183.496 26.608 183.403 25.5347 183.142 24.508C182.88 23.4813 182.451 22.5667 181.854 21.764C181.275 20.9613 180.528 20.3267 179.614 19.86C178.699 19.3747 177.626 19.132 176.394 19.132C175.292 19.132 174.284 19.328 173.37 19.72C172.474 20.112 171.699 20.6533 171.046 21.344C170.392 22.016 169.888 22.8187 169.534 23.752C169.179 24.6853 169.002 25.6933 169.002 26.776C169.002 27.896 169.17 28.9227 169.506 29.856C169.86 30.7893 170.355 31.592 170.99 32.264C171.624 32.936 172.399 33.4587 173.314 33.832C174.228 34.1867 175.255 34.364 176.394 34.364C178.036 34.364 179.436 33.9907 180.594 33.244C181.751 32.4973 182.61 31.256 183.17 29.52H179.67C179.539 29.968 179.184 30.3973 178.606 30.808C178.027 31.2 177.336 31.396 176.534 31.396C175.414 31.396 174.555 31.1067 173.958 30.528C173.36 29.9493 173.034 29.016 172.978 27.728Z" fill="white"/>
<path d="M192.948 34L197.848 19.524H193.9L190.848 29.408H190.792L187.74 19.524H183.568L188.524 34H192.948Z" fill="white"/>
</svg>
