<svg width="170" height="48" viewBox="0 0 170 48" fill="none" xmlns="http://www.w3.org/2000/svg">
<path fill-rule="evenodd" clip-rule="evenodd" d="M22 46C34.1503 46 44 36.1503 44 24C44 11.8497 34.1503 2 22 2C9.84971 2 0 11.8497 0 24C0 36.1503 9.84971 46 22 46ZM28.8632 12.2485C29.1973 11.0619 28.0457 10.3601 26.994 11.1094L12.3124 21.5685C11.1718 22.3811 11.3512 24 12.5819 24H16.448V23.9701H23.9828L17.8433 26.1363L15.1368 35.7515C14.8027 36.9382 15.9542 37.6399 17.006 36.8906L31.6876 26.4315C32.8282 25.619 32.6487 24 31.4181 24H25.5553L28.8632 12.2485Z" fill="white"/>
<path d="M55.3799 33.9092V30.4292H58.1399V16.3892H55.3799V12.9092H66.1799C67.4599 12.9092 68.5699 13.1292 69.5099 13.5692C70.4699 13.9892 71.2099 14.5992 71.7299 15.3992C72.2699 16.1792 72.5399 17.1192 72.5399 18.2192V18.5192C72.5399 19.4792 72.3599 20.2692 71.9999 20.8892C71.6399 21.4892 71.2099 21.9592 70.7099 22.2992C70.2299 22.6192 69.7699 22.8492 69.3299 22.9892V23.5292C69.7699 23.6492 70.2499 23.8792 70.7699 24.2192C71.2899 24.5392 71.7299 25.0092 72.0899 25.6292C72.4699 26.2492 72.6599 27.0592 72.6599 28.0592V28.3592C72.6599 29.5192 72.3899 30.5192 71.8499 31.3592C71.3099 32.1792 70.5599 32.8092 69.5999 33.2492C68.6599 33.6892 67.5599 33.9092 66.2999 33.9092H55.3799ZM62.0999 30.3092H65.8199C66.6799 30.3092 67.3699 30.0992 67.8899 29.6792C68.4299 29.2592 68.6999 28.6592 68.6999 27.8792V27.5792C68.6999 26.7992 68.4399 26.1992 67.9199 25.7792C67.3999 25.3592 66.6999 25.1492 65.8199 25.1492H62.0999V30.3092ZM62.0999 21.5492H65.7599C66.5799 21.5492 67.2499 21.3392 67.7699 20.9192C68.3099 20.4992 68.5799 19.9192 68.5799 19.1792V18.8792C68.5799 18.1192 68.3199 17.5392 67.7999 17.1392C67.2799 16.7192 66.5999 16.5092 65.7599 16.5092H62.0999V21.5492Z" fill="white"/>
<path d="M81.6018 34.3292C80.1218 34.3292 78.7918 34.0292 77.6118 33.4292C76.4318 32.8292 75.5018 31.9592 74.8218 30.8192C74.1418 29.6792 73.8018 28.3092 73.8018 26.7092V26.2292C73.8018 24.6292 74.1418 23.2592 74.8218 22.1192C75.5018 20.9792 76.4318 20.1092 77.6118 19.5092C78.7918 18.9092 80.1218 18.6092 81.6018 18.6092C83.0818 18.6092 84.4118 18.9092 85.5918 19.5092C86.7718 20.1092 87.7018 20.9792 88.3818 22.1192C89.0618 23.2592 89.4018 24.6292 89.4018 26.2292V26.7092C89.4018 28.3092 89.0618 29.6792 88.3818 30.8192C87.7018 31.9592 86.7718 32.8292 85.5918 33.4292C84.4118 34.0292 83.0818 34.3292 81.6018 34.3292ZM81.6018 30.9692C82.7618 30.9692 83.7218 30.5992 84.4818 29.8592C85.2418 29.0992 85.6218 28.0192 85.6218 26.6192V26.3192C85.6218 24.9192 85.2418 23.8492 84.4818 23.1092C83.7418 22.3492 82.7818 21.9692 81.6018 21.9692C80.4418 21.9692 79.4818 22.3492 78.7218 23.1092C77.9618 23.8492 77.5818 24.9192 77.5818 26.3192V26.6192C77.5818 28.0192 77.9618 29.0992 78.7218 29.8592C79.4818 30.5992 80.4418 30.9692 81.6018 30.9692Z" fill="white"/>
<path d="M91.3909 33.9092V12.9092H95.1709V33.9092H91.3909Z" fill="white"/>
<path d="M103.56 33.9092C102.58 33.9092 101.78 33.6092 101.16 33.0092C100.56 32.3892 100.26 31.5692 100.26 30.5492V22.1492H96.5396V19.0292H100.26V14.4092H104.04V19.0292H108.12V22.1492H104.04V29.8892C104.04 30.4892 104.32 30.7892 104.88 30.7892H107.76V33.9092H103.56Z" fill="white"/>
<path d="M116.221 34.3292C114.281 34.3292 112.691 33.9092 111.451 33.0692C110.211 32.2292 109.461 31.0292 109.201 29.4692L112.681 28.5692C112.821 29.2692 113.051 29.8192 113.371 30.2192C113.711 30.6192 114.121 30.9092 114.601 31.0892C115.101 31.2492 115.641 31.3292 116.221 31.3292C117.101 31.3292 117.751 31.1792 118.171 30.8792C118.591 30.5592 118.801 30.1692 118.801 29.7092C118.801 29.2492 118.601 28.8992 118.201 28.6592C117.801 28.3992 117.161 28.1892 116.281 28.0292L115.441 27.8792C114.401 27.6792 113.451 27.4092 112.591 27.0692C111.731 26.7092 111.041 26.2192 110.521 25.5992C110.001 24.9792 109.741 24.1792 109.741 23.1992C109.741 21.7192 110.281 20.5892 111.361 19.8092C112.441 19.0092 113.861 18.6092 115.621 18.6092C117.281 18.6092 118.661 18.9792 119.761 19.7192C120.861 20.4592 121.581 21.4292 121.921 22.6292L118.411 23.7092C118.251 22.9492 117.921 22.4092 117.421 22.0892C116.941 21.7692 116.341 21.6092 115.621 21.6092C114.901 21.6092 114.351 21.7392 113.971 21.9992C113.591 22.2392 113.401 22.5792 113.401 23.0192C113.401 23.4992 113.601 23.8592 114.001 24.0992C114.401 24.3192 114.941 24.4892 115.621 24.6092L116.461 24.7592C117.581 24.9592 118.591 25.2292 119.491 25.5692C120.411 25.8892 121.131 26.3592 121.651 26.9792C122.191 27.5792 122.461 28.3992 122.461 29.4392C122.461 30.9992 121.891 32.2092 120.751 33.0692C119.631 33.9092 118.121 34.3292 116.221 34.3292Z" fill="white"/>
<path d="M124.274 33.9092V12.9092H128.054V20.8592H128.594C128.754 20.5392 129.004 20.2192 129.344 19.8992C129.684 19.5792 130.134 19.3192 130.694 19.1192C131.274 18.8992 132.004 18.7892 132.884 18.7892C134.044 18.7892 135.054 19.0592 135.914 19.5992C136.794 20.1192 137.474 20.8492 137.954 21.7892C138.434 22.7092 138.674 23.7892 138.674 25.0292V33.9092H134.894V25.3292C134.894 24.2092 134.614 23.3692 134.054 22.8092C133.514 22.2492 132.734 21.9692 131.714 21.9692C130.554 21.9692 129.654 22.3592 129.014 23.1392C128.374 23.8992 128.054 24.9692 128.054 26.3492V33.9092H124.274Z" fill="white"/>
<path d="M141.26 33.9092V19.0292H145.04V33.9092H141.26ZM143.15 17.2892C142.47 17.2892 141.89 17.0692 141.41 16.6292C140.95 16.1892 140.72 15.6092 140.72 14.8892C140.72 14.1692 140.95 13.5892 141.41 13.1492C141.89 12.7092 142.47 12.4892 143.15 12.4892C143.85 12.4892 144.43 12.7092 144.89 13.1492C145.35 13.5892 145.58 14.1692 145.58 14.8892C145.58 15.6092 145.35 16.1892 144.89 16.6292C144.43 17.0692 143.85 17.2892 143.15 17.2892Z" fill="white"/>
<path d="M150.189 33.9092V22.1492H146.409V19.0292H150.189V16.2692C150.189 15.2492 150.489 14.4392 151.089 13.8392C151.709 13.2192 152.509 12.9092 153.489 12.9092H157.389V16.0292H154.809C154.249 16.0292 153.969 16.3292 153.969 16.9292V19.0292H157.869V22.1492H153.969V33.9092H150.189Z" fill="white"/>
<path d="M164.702 33.9092C163.722 33.9092 162.922 33.6092 162.302 33.0092C161.702 32.3892 161.402 31.5692 161.402 30.5492V22.1492H157.682V19.0292H161.402V14.4092H165.182V19.0292H169.262V22.1492H165.182V29.8892C165.182 30.4892 165.462 30.7892 166.022 30.7892H168.902V33.9092H164.702Z" fill="white"/>
</svg>
