<svg width="146" height="42" viewBox="0 0 146 42" fill="none" xmlns="http://www.w3.org/2000/svg">
<path fill-rule="evenodd" clip-rule="evenodd" d="M19.2534 39.7534C29.6107 39.7534 38.0069 31.3572 38.0069 21C38.0069 10.6427 29.6107 2.24652 19.2534 2.24652C8.89613 2.24652 0.499939 10.6427 0.499939 21C0.499939 31.3572 8.89613 39.7534 19.2534 39.7534ZM25.1038 10.9827C25.3886 9.97112 24.4069 9.37296 23.5104 10.0117L10.9954 18.9273C10.0231 19.62 10.1761 21 11.2251 21H14.5207V20.9745H20.9436L15.7101 22.821L13.403 31.0173C13.1182 32.0289 14.0998 32.627 14.9964 31.9883L27.5114 23.0727C28.4837 22.38 28.3306 21 27.2817 21H22.2841L25.1038 10.9827Z" fill="#180030"/>
<path d="M47.7075 29.4469V26.4804H50.0602V14.5123H47.7075V11.5458H56.9138C58.0049 11.5458 58.9511 11.7334 59.7524 12.1084C60.5707 12.4665 61.2015 12.9864 61.6448 13.6684C62.1051 14.3333 62.3352 15.1346 62.3352 16.0722V16.328C62.3352 17.1463 62.1818 17.8197 61.8749 18.3482C61.568 18.8597 61.2015 19.2603 60.7753 19.5501C60.3661 19.8229 59.974 20.019 59.5989 20.1383V20.5986C59.974 20.7009 60.3832 20.897 60.8264 21.1868C61.2697 21.4596 61.6448 21.8602 61.9516 22.3887C62.2756 22.9172 62.4375 23.6077 62.4375 24.4601V24.7159C62.4375 25.7047 62.2074 26.5571 61.747 27.2732C61.2867 27.9722 60.6474 28.5092 59.8291 28.8843C59.0278 29.2593 58.0901 29.4469 57.0161 29.4469H47.7075ZM53.4359 26.3781H56.6069C57.34 26.3781 57.9282 26.1991 58.3714 25.8411C58.8317 25.4831 59.0619 24.9716 59.0619 24.3067V24.051C59.0619 23.3861 58.8403 22.8746 58.397 22.5166C57.9537 22.1586 57.357 21.9796 56.6069 21.9796H53.4359V26.3781ZM53.4359 18.9108H56.5557C57.2547 18.9108 57.8259 18.7318 58.2691 18.3738C58.7294 18.0158 58.9596 17.5214 58.9596 16.8906V16.6348C58.9596 15.987 58.738 15.4926 58.2947 15.1516C57.8514 14.7936 57.2718 14.6146 56.5557 14.6146H53.4359V18.9108Z" fill="#180030"/>
<path d="M70.0598 29.8049C68.7982 29.8049 67.6645 29.5492 66.6586 29.0377C65.6528 28.5262 64.86 27.7846 64.2804 26.8129C63.7007 25.8411 63.4109 24.6733 63.4109 23.3094V22.9002C63.4109 21.5363 63.7007 20.3685 64.2804 19.3967C64.86 18.4249 65.6528 17.6833 66.6586 17.1719C67.6645 16.6604 68.7982 16.4047 70.0598 16.4047C71.3214 16.4047 72.4552 16.6604 73.461 17.1719C74.4669 17.6833 75.2597 18.4249 75.8393 19.3967C76.419 20.3685 76.7088 21.5363 76.7088 22.9002V23.3094C76.7088 24.6733 76.419 25.8411 75.8393 26.8129C75.2597 27.7846 74.4669 28.5262 73.461 29.0377C72.4552 29.5492 71.3214 29.8049 70.0598 29.8049ZM70.0598 26.9407C71.0487 26.9407 71.867 26.6253 72.5148 25.9945C73.1627 25.3467 73.4866 24.426 73.4866 23.2326V22.9769C73.4866 21.7835 73.1627 20.8714 72.5148 20.2406C71.884 19.5928 71.0657 19.2688 70.0598 19.2688C69.071 19.2688 68.2527 19.5928 67.6048 20.2406C66.957 20.8714 66.6331 21.7835 66.6331 22.9769V23.2326C66.6331 24.426 66.957 25.3467 67.6048 25.9945C68.2527 26.6253 69.071 26.9407 70.0598 26.9407Z" fill="#180030"/>
<path d="M78.4044 29.4469V11.5458H81.6266V29.4469H78.4044Z" fill="#180030"/>
<path d="M88.7774 29.4469C87.942 29.4469 87.2601 29.1911 86.7316 28.6797C86.2201 28.1512 85.9644 27.4522 85.9644 26.5827V19.4223H82.7933V16.7627H85.9644V12.8245H89.1866V16.7627H92.6645V19.4223H89.1866V26.0201C89.1866 26.5315 89.4252 26.7873 89.9026 26.7873H92.3576V29.4469H88.7774Z" fill="#180030"/>
<path d="M99.5706 29.8049C97.9169 29.8049 96.5615 29.4469 95.5045 28.7308C94.4475 28.0148 93.8081 26.9919 93.5865 25.6621L96.553 24.8949C96.6723 25.4916 96.8684 25.9604 97.1411 26.3014C97.431 26.6424 97.7805 26.8896 98.1896 27.043C98.6158 27.1794 99.0762 27.2476 99.5706 27.2476C100.321 27.2476 100.875 27.1197 101.233 26.864C101.591 26.5912 101.77 26.2588 101.77 25.8667C101.77 25.4745 101.599 25.1762 101.258 24.9716C100.917 24.75 100.372 24.571 99.6217 24.4346L98.9057 24.3067C98.0191 24.1362 97.2093 23.9061 96.4762 23.6162C95.7432 23.3094 95.155 22.8917 94.7117 22.3632C94.2685 21.8347 94.0468 21.1527 94.0468 20.3173C94.0468 19.0557 94.5071 18.0925 95.4278 17.4276C96.3484 16.7457 97.5588 16.4047 99.0591 16.4047C100.474 16.4047 101.65 16.7201 102.588 17.3509C103.526 17.9817 104.14 18.8085 104.429 19.8314L101.437 20.7521C101.301 20.1042 101.02 19.6439 100.593 19.3711C100.184 19.0984 99.6729 18.962 99.0591 18.962C98.4454 18.962 97.9765 19.0728 97.6526 19.2944C97.3287 19.499 97.1667 19.7888 97.1667 20.1639C97.1667 20.5731 97.3372 20.8799 97.6782 21.0845C98.0191 21.2721 98.4795 21.417 99.0591 21.5193L99.7752 21.6471C100.73 21.8176 101.591 22.0478 102.358 22.3376C103.142 22.6104 103.756 23.011 104.199 23.5395C104.66 24.051 104.89 24.75 104.89 25.6365C104.89 26.9663 104.404 27.9977 103.432 28.7308C102.477 29.4469 101.19 29.8049 99.5706 29.8049Z" fill="#180030"/>
<path d="M106.435 29.4469V11.5458H109.657V18.3226H110.117C110.254 18.0499 110.467 17.7771 110.757 17.5043C111.046 17.2315 111.43 17.0099 111.907 16.8394C112.402 16.6519 113.024 16.5581 113.774 16.5581C114.763 16.5581 115.624 16.7883 116.357 17.2486C117.107 17.6918 117.687 18.3141 118.096 19.1154C118.505 19.8996 118.71 20.8203 118.71 21.8773V29.4469H115.488V22.133C115.488 21.1783 115.249 20.4622 114.771 19.9849C114.311 19.5075 113.646 19.2688 112.777 19.2688C111.788 19.2688 111.021 19.6013 110.475 20.2662C109.93 20.914 109.657 21.8261 109.657 23.0025V29.4469H106.435Z" fill="#180030"/>
<path d="M120.914 29.4469V16.7627H124.137V29.4469H120.914ZM122.525 15.2795C121.946 15.2795 121.451 15.0919 121.042 14.7169C120.65 14.3418 120.454 13.8474 120.454 13.2336C120.454 12.6199 120.65 12.1255 121.042 11.7504C121.451 11.3753 121.946 11.1878 122.525 11.1878C123.122 11.1878 123.617 11.3753 124.009 11.7504C124.401 12.1255 124.597 12.6199 124.597 13.2336C124.597 13.8474 124.401 14.3418 124.009 14.7169C123.617 15.0919 123.122 15.2795 122.525 15.2795Z" fill="#180030"/>
<path d="M128.525 29.4469V19.4223H125.303V16.7627H128.525V14.41C128.525 13.5405 128.781 12.85 129.293 12.3386C129.821 11.8101 130.503 11.5458 131.339 11.5458H134.663V14.2054H132.464C131.986 14.2054 131.748 14.4611 131.748 14.9726V16.7627H135.072V19.4223H131.748V29.4469H128.525Z" fill="#180030"/>
<path d="M140.897 29.4469C140.062 29.4469 139.38 29.1911 138.851 28.6797C138.34 28.1512 138.084 27.4522 138.084 26.5827V19.4223H134.913V16.7627H138.084V12.8245H141.306V16.7627H144.784V19.4223H141.306V26.0201C141.306 26.5315 141.545 26.7873 142.022 26.7873H144.477V29.4469H140.897Z" fill="#180030"/>
</svg>
