<svg width="173" height="41" viewBox="0 0 173 41" fill="none" xmlns="http://www.w3.org/2000/svg">
<path d="M20.4233 22.1632C19.9901 16.9126 15.5915 12.7864 10.2292 12.7864C4.57975 12.7864 0 17.3662 0 23.0156C0 28.665 4.57975 33.2448 10.2292 33.2448H25.5729V22.1632H20.4233Z" fill="#180030"/>
<circle cx="24.7205" cy="20.4583" r="12.7865" fill="#7839EE"/>
<path d="M45.0901 20.6289C45.0901 18.9263 45.4163 17.4385 46.0687 16.1655C46.737 14.8767 47.6837 13.8822 48.909 13.182C50.1501 12.4819 51.6061 12.1318 53.2768 12.1318C54.5816 12.1318 55.7511 12.3864 56.7854 12.8956C57.8197 13.4048 58.6551 14.1208 59.2916 15.0437C59.9281 15.9666 60.3099 17.0327 60.4372 18.2421H56.857C56.6502 17.2873 56.2126 16.5395 55.5443 15.9985C54.8919 15.4415 54.0724 15.1631 53.0859 15.1631C51.7493 15.1631 50.6911 15.6643 49.9114 16.6668C49.1317 17.6692 48.7419 18.9899 48.7419 20.6289C48.7419 22.2519 49.1317 23.5726 49.9114 24.591C50.6911 25.5934 51.7493 26.0946 53.0859 26.0946C54.0724 26.0946 54.8919 25.8241 55.5443 25.2831C56.2126 24.7262 56.6502 23.9704 56.857 23.0157H60.4372C60.3099 24.225 59.9281 25.2911 59.2916 26.214C58.6551 27.1369 57.8197 27.8529 56.7854 28.3621C55.7511 28.8713 54.5816 29.1259 53.2768 29.1259C51.6061 29.1259 50.1501 28.7758 48.909 28.0757C47.6837 27.3756 46.737 26.389 46.0687 25.1161C45.4163 23.8272 45.0901 22.3314 45.0901 20.6289Z" fill="#180030"/>
<path d="M61.3 12.275H64.6654V28.9827H61.3V12.275Z" fill="#180030"/>
<path d="M72.0468 29.1259C70.7579 29.1259 69.6202 28.8713 68.6337 28.3621C67.663 27.837 66.9072 27.0971 66.3662 26.1424C65.8411 25.1877 65.5786 24.0897 65.5786 22.8486C65.5786 21.6075 65.8411 20.5095 66.3662 19.5548C66.9072 18.6001 67.663 17.8681 68.6337 17.3589C69.6202 16.8338 70.7579 16.5713 72.0468 16.5713C73.3357 16.5713 74.4654 16.8338 75.4361 17.3589C76.4226 17.8681 77.1784 18.6001 77.7035 19.5548C78.2445 20.5095 78.515 21.6075 78.515 22.8486C78.515 24.1056 78.2445 25.2115 77.7035 26.1662C77.1784 27.1051 76.4226 27.837 75.4361 28.3621C74.4654 28.8713 73.3357 29.1259 72.0468 29.1259ZM72.0468 26.3811C72.9856 26.3811 73.7255 26.0549 74.2665 25.4025C74.8235 24.7501 75.1019 23.8988 75.1019 22.8486C75.1019 21.7984 74.8235 20.9471 74.2665 20.2947C73.7255 19.6423 72.9856 19.3161 72.0468 19.3161C71.1239 19.3161 70.384 19.6423 69.8271 20.2947C69.2861 20.9471 69.0156 21.7984 69.0156 22.8486C69.0156 23.8988 69.2861 24.7501 69.8271 25.4025C70.384 26.0549 71.1239 26.3811 72.0468 26.3811Z" fill="#180030"/>
<path d="M90.9648 16.7145V28.9827H87.9813L87.6711 27.5029C87.2414 28.012 86.7402 28.4098 86.1674 28.6963C85.5945 28.9827 84.8944 29.1259 84.067 29.1259C82.6349 29.1259 81.4654 28.6883 80.5584 27.8131C79.6514 26.9221 79.1979 25.4422 79.1979 23.3737V16.7145H82.5633V22.9679C82.5633 24.0818 82.7542 24.9251 83.1361 25.4979C83.5339 26.0549 84.1386 26.3333 84.9501 26.3333C85.7934 26.3333 86.4458 26.023 86.9073 25.4025C87.3687 24.766 87.5994 23.8829 87.5994 22.7531V16.7145H90.9648Z" fill="#180030"/>
<path d="M104.618 12.275V28.9827H101.682L101.348 27.288C100.409 28.5133 99.1364 29.1259 97.5293 29.1259C96.4473 29.1259 95.4766 28.8713 94.6174 28.3621C93.7581 27.837 93.0819 27.0971 92.5886 26.1424C92.1113 25.1877 91.8726 24.0818 91.8726 22.8247C91.8726 21.5836 92.1113 20.4936 92.5886 19.5548C93.0819 18.6001 93.7581 17.8681 94.6174 17.3589C95.4926 16.8338 96.4711 16.5713 97.5532 16.5713C99.1444 16.5713 100.378 17.1282 101.253 18.2421V12.275H104.618ZM98.3169 26.3811C99.2239 26.3811 99.9479 26.0628 100.489 25.4263C101.03 24.7739 101.3 23.9226 101.3 22.8725C101.3 21.8063 101.03 20.9471 100.489 20.2947C99.9479 19.6423 99.2239 19.3161 98.3169 19.3161C97.41 19.3161 96.678 19.6423 96.1211 20.2947C95.5801 20.9471 95.3096 21.7984 95.3096 22.8486C95.3096 23.8988 95.5801 24.7501 96.1211 25.4025C96.678 26.0549 97.41 26.3811 98.3169 26.3811Z" fill="#180030"/>
<path d="M105.055 12.275L108.755 12.2512L111.834 24.4716L115.103 12.275H118.326L121.5 24.4716L124.651 12.275H128.279L123.648 28.9827H119.519L116.631 17.884L113.815 28.9827H109.685L105.055 12.275Z" fill="#180030"/>
<path d="M139.509 26.1424V28.9827H137.79C136.247 28.9827 135.491 28.3144 135.523 26.9778C135.077 27.6779 134.528 28.2109 133.876 28.5769C133.223 28.9429 132.436 29.1259 131.513 29.1259C130.144 29.1259 129.038 28.8156 128.195 28.195C127.368 27.5585 126.954 26.6675 126.954 25.5218C126.954 24.217 127.431 23.2146 128.386 22.5144C129.357 21.7984 130.757 21.4404 132.587 21.4404H135.021V20.8437C135.021 20.2868 134.814 19.8492 134.401 19.5309C133.987 19.1968 133.43 19.0297 132.73 19.0297C132.109 19.0297 131.6 19.165 131.202 19.4355C130.805 19.706 130.566 20.0719 130.486 20.5334H127.24C127.352 19.2763 127.909 18.3057 128.911 17.6215C129.914 16.9214 131.242 16.5713 132.897 16.5713C134.631 16.5713 135.968 16.9532 136.907 17.717C137.862 18.4807 138.339 19.5866 138.339 21.0346V25.3547C138.339 25.6571 138.403 25.8639 138.53 25.9753C138.657 26.0867 138.856 26.1424 139.127 26.1424H139.509ZM135.021 23.684H132.563C131.863 23.684 131.314 23.8272 130.916 24.1136C130.534 24.3841 130.343 24.7739 130.343 25.2831C130.343 25.7128 130.502 26.0549 130.821 26.3095C131.155 26.564 131.6 26.6913 132.157 26.6913C133.032 26.6913 133.724 26.4447 134.234 25.9514C134.743 25.4422 135.005 24.766 135.021 23.9226V23.684Z" fill="#180030"/>
<path d="M140.643 19.5548H138.615V16.7145H140.643V13.2775H144.009V16.7145H146.801V19.5548H144.009V24.9251C144.009 25.3547 144.096 25.665 144.271 25.856C144.462 26.0469 144.773 26.1424 145.202 26.1424H146.945V28.9827H144.152C141.813 28.9827 140.643 27.8131 140.643 25.4741V19.5548Z" fill="#180030"/>
<path d="M159.013 24.3284C158.79 25.8241 158.154 27.0016 157.104 27.8609C156.069 28.7042 154.725 29.1259 153.07 29.1259C151.797 29.1259 150.683 28.8713 149.728 28.3621C148.774 27.837 148.034 27.0971 147.509 26.1424C146.999 25.1877 146.745 24.0897 146.745 22.8486C146.745 21.5915 146.999 20.4936 147.509 19.5548C148.034 18.6001 148.774 17.8681 149.728 17.3589C150.699 16.8338 151.821 16.5713 153.094 16.5713C154.733 16.5713 156.069 16.993 157.104 17.8363C158.138 18.6637 158.774 19.8173 159.013 21.2972H155.528C155.385 20.6925 155.099 20.2151 154.669 19.8651C154.239 19.4991 153.706 19.3161 153.07 19.3161C152.195 19.3161 151.495 19.6423 150.969 20.2947C150.444 20.9471 150.182 21.7984 150.182 22.8486C150.182 23.8988 150.444 24.7501 150.969 25.4025C151.495 26.0549 152.195 26.3811 153.07 26.3811C153.722 26.3811 154.263 26.1981 154.693 25.8321C155.138 25.4661 155.425 24.9649 155.552 24.3284H159.013Z" fill="#180030"/>
<path d="M166.873 16.5713C168.321 16.5713 169.506 17.0168 170.429 17.9079C171.368 18.799 171.838 20.2708 171.838 22.3235V28.9827H168.472V22.4667C168.472 21.4483 168.265 20.6766 167.852 20.1515C167.438 19.6105 166.817 19.34 165.99 19.34C165.131 19.34 164.454 19.6344 163.961 20.2231C163.484 20.8118 163.245 21.6313 163.245 22.6815V28.9827H159.88V12.275H163.245V18.2182C164.152 17.1203 165.361 16.5713 166.873 16.5713Z" fill="#180030"/>
</svg>
