<svg width="139" height="41" viewBox="0 0 139 41" fill="none" xmlns="http://www.w3.org/2000/svg">
<circle cx="13.6389" cy="15.3437" r="11.934" fill="#180030" stroke="#7839EE" stroke-width="3.40972"/>
<circle cx="20.4583" cy="25.573" r="11.934" stroke="#7839EE" stroke-width="3.40972"/>
<path d="M44.2837 28.9052H48.1452V11.0042H44.2837V28.9052Z" fill="#180030"/>
<path d="M49.8394 28.9052H53.4196V21.8471C53.4196 20.1849 54.5192 18.9829 56.0792 18.9829C57.5624 18.9829 58.5598 20.1081 58.5598 21.6681V28.9052H62.14V20.8753C62.14 17.9089 60.2476 15.8119 57.3323 15.8119C55.5677 15.8119 54.1357 16.5535 53.4196 17.8066V16.0165H49.8394V28.9052Z" fill="#180030"/>
<path d="M64.7326 12.2061V16.0165H62.2521V18.9829H64.7326V24.2254C64.7326 27.2174 66.6506 28.9052 69.617 28.9052H71.7396V25.9132H70.1029C68.9522 25.9132 68.2873 25.325 68.2873 24.0719V18.9829H71.7396V16.0165H68.2873V12.2061H64.7326Z" fill="#180030"/>
<path d="M80.7738 24.5323C80.4925 25.6319 79.5463 26.1945 78.1142 26.1945C76.3241 26.1945 75.1734 25.0693 74.9176 23.2536H84.175C84.2006 22.9723 84.2262 22.5887 84.2262 22.1028C84.2262 19.1619 82.4105 15.8119 77.8585 15.8119C73.4855 15.8119 71.4909 19.1619 71.4909 22.4353C71.4909 25.683 73.7413 29.1098 78.1142 29.1098C81.2853 29.1098 83.7403 27.3197 84.2517 24.5323H80.7738ZM77.8585 18.4203C79.5719 18.4203 80.5692 19.5711 80.6715 21.0032H74.9688C75.2757 19.2131 76.2474 18.4203 77.8585 18.4203Z" fill="#180030"/>
<path d="M93.1723 18.9829V16.0165H91.7146C90.1547 16.0165 89.1829 16.5535 88.4924 18.1646V16.0165H84.9122V28.9052H88.4924V22.6399C88.4924 20.4406 89.2852 18.9829 91.0497 18.9829H93.1723Z" fill="#180030"/>
<path d="M93.7527 28.9052H97.3073V10.416H93.7527V28.9052Z" fill="#180030"/>
<path d="M104.975 29.1098C108.939 29.1098 111.777 26.2968 111.777 22.4609C111.777 18.6249 108.939 15.8119 104.975 15.8119C101.011 15.8119 98.1726 18.6249 98.1726 22.4609C98.1726 26.2968 101.011 29.1098 104.975 29.1098ZM104.975 26.0411C103.057 26.0411 101.753 24.5834 101.753 22.4609C101.753 20.3127 103.057 18.8551 104.975 18.8551C106.893 18.8551 108.197 20.3127 108.197 22.4609C108.197 24.5834 106.893 26.0411 104.975 26.0411Z" fill="#180030"/>
<path d="M118.427 29.1098C121.777 29.1098 124.437 26.9617 124.82 24.0975H121.189C120.933 25.2483 119.885 26.0411 118.581 26.0411C116.637 26.0411 115.486 24.5578 115.486 22.4609C115.486 20.3639 116.611 18.8551 118.529 18.8551C119.834 18.8551 120.933 19.699 121.138 20.8498H124.718C124.488 17.8577 121.803 15.8119 118.427 15.8119C114.438 15.8119 111.778 18.7016 111.778 22.4609C111.778 26.2201 114.438 29.1098 118.427 29.1098Z" fill="#180030"/>
<path d="M134.223 28.9052H138.519L132.97 21.0799L138.11 16.0165H133.609L129.134 20.415V10.416H125.554V28.9052H129.134V24.8647L130.566 23.4582L134.223 28.9052Z" fill="#180030"/>
</svg>
