<svg width="162" height="41" viewBox="0 0 162 41" fill="none" xmlns="http://www.w3.org/2000/svg">
<path d="M18.3955 3.40967C15.2926 3.40967 12.7865 5.88535 12.7865 8.95046C12.7865 11.992 15.2926 14.4677 18.3716 14.4913C17.6078 14.4677 17.0111 13.8547 17.0111 13.1002C17.0111 12.3457 17.6317 11.7091 18.4194 11.7091C21.7609 11.7091 29.1839 11.7091 32.4538 11.7091C34.769 11.7091 36.6545 9.84644 36.6545 7.5594C36.6545 5.27232 34.769 3.40967 32.4538 3.40967L18.3955 3.40967Z" fill="#180030"/>
<path d="M11.576 14.4913C8.47318 14.4913 5.96704 16.967 5.96704 20.0321C5.96704 23.0737 8.47318 25.5493 11.5521 25.5729C10.7884 25.5493 10.1917 24.9363 10.1917 24.1818C10.1917 23.4273 10.8123 22.7908 11.5999 22.7908C14.9414 22.7908 22.3644 22.7908 25.6343 22.7908C27.9495 22.7908 29.8351 20.9281 29.8351 18.6411C29.8351 16.354 27.9495 14.4913 25.6343 14.4913L11.576 14.4913Z" fill="#6927DA"/>
<path d="M6.86205 25.5729C3.53757 25.5729 0.852417 28.239 0.852417 31.5399C0.852417 34.8154 3.53757 37.4815 6.83646 37.5069C6.01814 37.4815 5.37882 36.8213 5.37882 36.0088C5.37882 35.1963 6.04373 34.5107 6.88765 34.5107C10.4678 34.5107 18.421 34.5107 21.9245 34.5107C24.4051 34.5107 26.4253 32.5048 26.4253 30.0418C26.4253 27.5788 24.4051 25.5729 21.9245 25.5729L6.86205 25.5729Z" fill="#7839EE"/>
<path d="M45.1617 28.9052V11.0041H56.6696V14.0729H48.5374V18.3436H55.9535V21.4123H48.5374V25.8364H56.823V28.9052H45.1617Z" fill="#180030"/>
<path d="M58.1454 34.0198V16.221H61.3164V17.7554H61.7767C62.0666 17.261 62.5184 16.8262 63.1321 16.4512C63.7459 16.059 64.6239 15.863 65.7661 15.863C66.789 15.863 67.7352 16.1187 68.6047 16.6302C69.4742 17.1246 70.1732 17.8577 70.7017 18.8294C71.2302 19.8012 71.4944 20.9776 71.4944 22.3585V22.7677C71.4944 24.1486 71.2302 25.325 70.7017 26.2967C70.1732 27.2685 69.4742 28.0101 68.6047 28.5216C67.7352 29.016 66.789 29.2632 65.7661 29.2632C64.9989 29.2632 64.3511 29.1694 63.8226 28.9819C63.3111 28.8114 62.8934 28.5898 62.5695 28.317C62.2626 28.0272 62.0154 27.7373 61.8279 27.4475H61.3676V34.0198H58.1454ZM64.7943 26.4502C65.8002 26.4502 66.6271 26.1348 67.2749 25.504C67.9398 24.8561 68.2723 23.9185 68.2723 22.691V22.4352C68.2723 21.2077 67.9398 20.2786 67.2749 19.6478C66.61 18.9999 65.7832 18.676 64.7943 18.676C63.8055 18.676 62.9787 18.9999 62.3138 19.6478C61.6489 20.2786 61.3164 21.2077 61.3164 22.4352V22.691C61.3164 23.9185 61.6489 24.8561 62.3138 25.504C62.9787 26.1348 63.8055 26.4502 64.7943 26.4502Z" fill="#180030"/>
<path d="M73.1745 28.9052V16.221H76.3966V28.9052H73.1745ZM74.7856 14.7378C74.2059 14.7378 73.7115 14.5502 73.3023 14.1752C72.9102 13.8001 72.7142 13.3057 72.7142 12.692C72.7142 12.0782 72.9102 11.5838 73.3023 11.2087C73.7115 10.8337 74.2059 10.6461 74.7856 10.6461C75.3823 10.6461 75.8767 10.8337 76.2688 11.2087C76.6609 11.5838 76.857 12.0782 76.857 12.692C76.857 13.3057 76.6609 13.8001 76.2688 14.1752C75.8767 14.5502 75.3823 14.7378 74.7856 14.7378Z" fill="#180030"/>
<path d="M84.6471 29.2632C83.4196 29.2632 82.3029 29.0075 81.2971 28.496C80.3082 27.9845 79.524 27.2429 78.9443 26.2712C78.3647 25.2994 78.0749 24.123 78.0749 22.7421V22.3841C78.0749 21.0031 78.3647 19.8268 78.9443 18.855C79.524 17.8832 80.3082 17.1416 81.2971 16.6302C82.3029 16.1187 83.4196 15.863 84.6471 15.863C85.8576 15.863 86.8975 16.0761 87.767 16.5023C88.6365 16.9285 89.3355 17.5167 89.864 18.2668C90.4095 18.9999 90.7676 19.8353 90.938 20.773L87.8181 21.4379C87.75 20.9264 87.5965 20.4661 87.3578 20.0569C87.1192 19.6478 86.7782 19.3239 86.3349 19.0852C85.9087 18.8465 85.3717 18.7272 84.7238 18.7272C84.076 18.7272 83.4878 18.8721 82.9593 19.1619C82.4478 19.4347 82.0387 19.8524 81.7318 20.415C81.442 20.9605 81.2971 21.6339 81.2971 22.4352V22.691C81.2971 23.4922 81.442 24.1742 81.7318 24.7368C82.0387 25.2823 82.4478 25.7 82.9593 25.9899C83.4878 26.2626 84.076 26.399 84.7238 26.399C85.6956 26.399 86.4287 26.1518 86.9231 25.6574C87.4346 25.146 87.7585 24.4811 87.8949 23.6627L91.0148 24.4043C90.7931 25.3079 90.4095 26.1348 89.864 26.8849C89.3355 27.618 88.6365 28.1977 87.767 28.6239C86.8975 29.0501 85.8576 29.2632 84.6471 29.2632Z" fill="#180030"/>
<path d="M97.2274 29.1098C96.2386 29.1098 95.3691 28.8881 94.6189 28.4449C93.8858 27.9845 93.3147 27.3537 92.9056 26.5525C92.4964 25.7512 92.2918 24.8306 92.2918 23.7906V16.221H95.514V23.5349C95.514 24.4896 95.7441 25.2056 96.2045 25.683C96.6818 26.1603 97.3552 26.399 98.2247 26.399C99.2135 26.399 99.9807 26.0751 100.526 25.4273C101.072 24.7624 101.345 23.8417 101.345 22.6654V16.221H104.567V28.9052H101.396V27.2429H100.935C100.731 27.6691 100.347 28.0868 99.7847 28.496C99.2221 28.9052 98.3696 29.1098 97.2274 29.1098Z" fill="#180030"/>
<path d="M106.874 28.9052V16.221H110.045V17.6531H110.505C110.693 17.1416 111 16.7666 111.426 16.5279C111.869 16.2892 112.38 16.1699 112.96 16.1699H114.494V19.034H112.909C112.091 19.034 111.417 19.2557 110.889 19.6989C110.36 20.1251 110.096 20.79 110.096 21.6936V28.9052H106.874Z" fill="#180030"/>
<path d="M115.734 28.9052V16.221H118.957V28.9052H115.734ZM117.345 14.7378C116.766 14.7378 116.271 14.5502 115.862 14.1752C115.47 13.8001 115.274 13.3057 115.274 12.692C115.274 12.0782 115.47 11.5838 115.862 11.2087C116.271 10.8337 116.766 10.6461 117.345 10.6461C117.942 10.6461 118.437 10.8337 118.829 11.2087C119.221 11.5838 119.417 12.0782 119.417 12.692C119.417 13.3057 119.221 13.8001 118.829 14.1752C118.437 14.5502 117.942 14.7378 117.345 14.7378Z" fill="#180030"/>
<path d="M127.284 29.2632C126.022 29.2632 124.888 29.0075 123.883 28.496C122.877 27.9845 122.084 27.2429 121.504 26.2712C120.925 25.2994 120.635 24.1316 120.635 22.7677V22.3585C120.635 20.9946 120.925 19.8268 121.504 18.855C122.084 17.8832 122.877 17.1416 123.883 16.6302C124.888 16.1187 126.022 15.863 127.284 15.863C128.545 15.863 129.679 16.1187 130.685 16.6302C131.691 17.1416 132.484 17.8832 133.063 18.855C133.643 19.8268 133.933 20.9946 133.933 22.3585V22.7677C133.933 24.1316 133.643 25.2994 133.063 26.2712C132.484 27.2429 131.691 27.9845 130.685 28.496C129.679 29.0075 128.545 29.2632 127.284 29.2632ZM127.284 26.399C128.273 26.399 129.091 26.0836 129.739 25.4528C130.387 24.805 130.71 23.8844 130.71 22.691V22.4352C130.71 21.2418 130.387 20.3297 129.739 19.6989C129.108 19.0511 128.29 18.7272 127.284 18.7272C126.295 18.7272 125.477 19.0511 124.829 19.6989C124.181 20.3297 123.857 21.2418 123.857 22.4352V22.691C123.857 23.8844 124.181 24.805 124.829 25.4528C125.477 26.0836 126.295 26.399 127.284 26.399Z" fill="#180030"/>
<path d="M140.462 29.1098C139.473 29.1098 138.603 28.8881 137.853 28.4449C137.12 27.9845 136.549 27.3537 136.14 26.5525C135.731 25.7512 135.526 24.8306 135.526 23.7906V16.221H138.748V23.5349C138.748 24.4896 138.978 25.2056 139.439 25.683C139.916 26.1603 140.589 26.399 141.459 26.399C142.448 26.399 143.215 26.0751 143.76 25.4273C144.306 24.7624 144.579 23.8417 144.579 22.6654V16.221H147.801V28.9052H144.63V27.2429H144.17C143.965 27.6691 143.581 28.0868 143.019 28.496C142.456 28.9052 141.604 29.1098 140.462 29.1098Z" fill="#180030"/>
<path d="M155.376 29.2632C153.722 29.2632 152.367 28.9052 151.31 28.1891C150.253 27.4731 149.614 26.4502 149.392 25.1204L152.358 24.3532C152.478 24.9499 152.674 25.4187 152.947 25.7597C153.236 26.1007 153.586 26.3479 153.995 26.5013C154.421 26.6377 154.882 26.7059 155.376 26.7059C156.126 26.7059 156.68 26.578 157.038 26.3223C157.396 26.0495 157.575 25.7171 157.575 25.325C157.575 24.9328 157.405 24.6345 157.064 24.4299C156.723 24.2083 156.177 24.0293 155.427 23.8929L154.711 23.765C153.825 23.5945 153.015 23.3644 152.282 23.0745C151.549 22.7677 150.96 22.35 150.517 21.8215C150.074 21.293 149.852 20.611 149.852 19.7756C149.852 18.514 150.313 17.5508 151.233 16.8859C152.154 16.204 153.364 15.863 154.865 15.863C156.28 15.863 157.456 16.1784 158.394 16.8092C159.331 17.44 159.945 18.2668 160.235 19.2898L157.243 20.2104C157.106 19.5625 156.825 19.1022 156.399 18.8294C155.99 18.5567 155.478 18.4203 154.865 18.4203C154.251 18.4203 153.782 18.5311 153.458 18.7527C153.134 18.9573 152.972 19.2471 152.972 19.6222C152.972 20.0314 153.143 20.3382 153.484 20.5428C153.825 20.7304 154.285 20.8753 154.865 20.9776L155.581 21.1054C156.535 21.2759 157.396 21.5061 158.163 21.7959C158.948 22.0687 159.561 22.4693 160.005 22.9978C160.465 23.5093 160.695 24.2083 160.695 25.0948C160.695 26.4246 160.209 27.456 159.237 28.1891C158.283 28.9052 156.996 29.2632 155.376 29.2632Z" fill="#180030"/>
</svg>
