<svg width="143" height="41" viewBox="0 0 143 41" fill="none" xmlns="http://www.w3.org/2000/svg">
<path fill-rule="evenodd" clip-rule="evenodd" d="M16.8487 2.93909C16.4182 2.85055 15.9742 2.85055 15.5436 2.93909C15.046 3.04144 14.6012 3.29057 14.2476 3.48863L14.1512 3.54248L2.16648 10.2007C2.13334 10.2191 2.0992 10.2379 2.06422 10.2571C1.68989 10.4633 1.21922 10.7226 0.857774 11.1148C0.545278 11.4539 0.308789 11.8558 0.164123 12.2937C-0.00320501 12.8001 -0.00124732 13.3374 0.000309567 13.7648C0.000455103 13.8047 0.00059706 13.8437 0.00059706 13.8816V27.0277C0.00059706 27.0656 0.000455103 27.1046 0.000309567 27.1445C-0.00124732 27.5719 -0.00320501 28.1092 0.164123 28.6157C0.30879 29.0535 0.54528 29.4554 0.857774 29.7945C1.21922 30.1868 1.68989 30.446 2.06422 30.6522C2.0992 30.6715 2.13335 30.6903 2.16648 30.7087L14.1512 37.3668L14.2476 37.4207C14.6012 37.6188 15.046 37.8679 15.5437 37.9702C15.9742 38.0588 16.4182 38.0588 16.8487 37.9702C17.3463 37.8679 17.7911 37.6188 18.1448 37.4207L18.2411 37.3668L30.2259 30.7087C30.2405 30.7005 30.2554 30.6923 30.2704 30.684C30.2893 30.6735 30.3086 30.6629 30.3281 30.6522C30.7024 30.446 31.1731 30.1868 31.5346 29.7945C31.8471 29.4554 32.0836 29.0535 32.2282 28.6157C32.3955 28.1092 32.3936 27.5719 32.392 27.1445C32.3919 27.1046 32.3917 27.0656 32.3917 27.0277V13.8816C32.3917 13.8437 32.3919 13.8047 32.392 13.7648C32.3936 13.3374 32.3955 12.8001 32.2282 12.2936C32.0836 11.8558 31.8471 11.4539 31.5346 11.1148C31.1731 10.7226 30.7025 10.4633 30.3281 10.2571L30.3268 10.2564C30.2923 10.2374 30.2586 10.2188 30.2259 10.2007L18.2411 3.54248L18.1448 3.48863C17.7911 3.29057 17.3463 3.04144 16.8487 2.93909ZM15.7243 6.37397C15.9697 6.23762 16.095 6.16873 16.1884 6.12365L16.1962 6.11994L16.2039 6.12365C16.2974 6.16873 16.4227 6.23762 16.6681 6.37397L27.4372 12.3568L16.1961 18.6019L4.95505 12.3569L15.7243 6.37397ZM3.23971 15.1093L14.5766 21.4076L14.5766 33.8978L3.73953 27.8772C3.48048 27.7333 3.34822 27.659 3.25542 27.5999L3.24759 27.5949L3.247 27.5856C3.24039 27.4757 3.23971 27.3241 3.23971 27.0277V15.1093Z" fill="#180030"/>
<path d="M47.1318 25.8672H52.2873V28.9052H43.1961V12.7483H47.1318V25.8672Z" fill="#180030"/>
<path d="M55.9137 14.7276C55.2232 14.7276 54.6555 14.5281 54.2105 14.1292C53.7809 13.7149 53.5661 13.2086 53.5661 12.6102C53.5661 11.9964 53.7809 11.4901 54.2105 11.0911C54.6555 10.6769 55.2232 10.4697 55.9137 10.4697C56.5888 10.4697 57.1412 10.6769 57.5708 11.0911C58.0158 11.4901 58.2382 11.9964 58.2382 12.6102C58.2382 13.2086 58.0158 13.7149 57.5708 14.1292C57.1412 14.5281 56.5888 14.7276 55.9137 14.7276ZM57.87 16.0625V28.9052H53.9343V16.0625H57.87Z" fill="#180030"/>
<path d="M65.3713 15.8784C66.2766 15.8784 67.0668 16.0625 67.7419 16.4308C68.4324 16.799 68.9617 17.2823 69.33 17.8808V16.0625H73.2656V28.8822C73.2656 30.0637 73.0278 31.1301 72.5522 32.0814C72.0919 33.048 71.3784 33.8152 70.4117 34.3829C69.4604 34.9507 68.2713 35.2345 66.8443 35.2345C64.9417 35.2345 63.3996 34.7819 62.2181 33.8766C61.0367 32.9867 60.3616 31.7745 60.1928 30.2401H64.0824C64.2052 30.7311 64.4967 31.1147 64.957 31.3909C65.4173 31.6825 65.985 31.8282 66.6602 31.8282C67.4734 31.8282 68.1178 31.5904 68.5935 31.1147C69.0845 30.6544 69.33 29.9102 69.33 28.8822V27.064C68.9464 27.6624 68.417 28.1534 67.7419 28.537C67.0668 28.9052 66.2766 29.0894 65.3713 29.0894C64.3126 29.0894 63.3536 28.8208 62.4943 28.2838C61.6351 27.7314 60.9523 26.9566 60.4459 25.9592C59.9549 24.9465 59.7094 23.7804 59.7094 22.4609C59.7094 21.1413 59.9549 19.9828 60.4459 18.9855C60.9523 17.9882 61.6351 17.221 62.4943 16.6839C63.3536 16.1469 64.3126 15.8784 65.3713 15.8784ZM69.33 22.4839C69.33 21.5019 69.0538 20.727 68.5014 20.1593C67.9644 19.5916 67.3046 19.3077 66.5221 19.3077C65.7395 19.3077 65.0721 19.5916 64.5197 20.1593C63.9827 20.7117 63.7142 21.4789 63.7142 22.4609C63.7142 23.4429 63.9827 24.2254 64.5197 24.8085C65.0721 25.3762 65.7395 25.66 66.5221 25.66C67.3046 25.66 67.9644 25.3762 68.5014 24.8085C69.0538 24.2407 69.33 23.4659 69.33 22.4839Z" fill="#180030"/>
<path d="M83.7771 15.9244C85.2501 15.9244 86.4316 16.4154 87.3215 17.3974C88.2115 18.3641 88.6564 19.699 88.6564 21.4021V28.9052H84.7438V21.9315C84.7438 21.0723 84.5213 20.4048 84.0763 19.9291C83.6314 19.4535 83.033 19.2157 82.2811 19.2157C81.5293 19.2157 80.9309 19.4535 80.4859 19.9291C80.0409 20.4048 79.8184 21.0723 79.8184 21.9315V28.9052H75.8828V11.8737H79.8184V17.7887C80.2174 17.221 80.7621 16.7683 81.4525 16.4308C82.143 16.0932 82.9179 15.9244 83.7771 15.9244Z" fill="#180030"/>
<path d="M98.319 25.568V28.9052H96.3167C94.8897 28.9052 93.7773 28.56 92.9794 27.8695C92.1815 27.1637 91.7826 26.0206 91.7826 24.4402V19.3307H90.2175V16.0625H91.7826V12.9324H95.7183V16.0625H98.296V19.3307H95.7183V24.4862C95.7183 24.8698 95.8103 25.146 95.9945 25.3148C96.1786 25.4836 96.4855 25.568 96.9151 25.568H98.319Z" fill="#180030"/>
<path d="M104.217 17.8808C104.585 17.2823 105.114 16.799 105.805 16.4308C106.495 16.0625 107.286 15.8784 108.175 15.8784C109.234 15.8784 110.193 16.1469 111.052 16.6839C111.912 17.221 112.587 17.9882 113.078 18.9855C113.584 19.9828 113.837 21.1413 113.837 22.4609C113.837 23.7804 113.584 24.9465 113.078 25.9592C112.587 26.9566 111.912 27.7314 111.052 28.2838C110.193 28.8208 109.234 29.0894 108.175 29.0894C107.27 29.0894 106.48 28.9129 105.805 28.56C105.13 28.1917 104.6 27.7084 104.217 27.11V28.9052H100.281V11.8737H104.217V17.8808ZM109.833 22.4609C109.833 21.4789 109.556 20.7117 109.004 20.1593C108.467 19.5916 107.8 19.3077 107.002 19.3077C106.219 19.3077 105.552 19.5916 104.999 20.1593C104.462 20.727 104.194 21.5019 104.194 22.4839C104.194 23.4659 104.462 24.2407 104.999 24.8085C105.552 25.3762 106.219 25.66 107.002 25.66C107.784 25.66 108.452 25.3762 109.004 24.8085C109.556 24.2254 109.833 23.4429 109.833 22.4609Z" fill="#180030"/>
<path d="M121.518 29.0894C120.26 29.0894 119.124 28.8208 118.112 28.2838C117.114 27.7468 116.324 26.9796 115.741 25.9822C115.173 24.9849 114.889 23.8188 114.889 22.4839C114.889 21.1643 115.181 20.0059 115.764 19.0085C116.347 17.9958 117.145 17.221 118.158 16.6839C119.17 16.1469 120.306 15.8784 121.564 15.8784C122.822 15.8784 123.958 16.1469 124.97 16.6839C125.983 17.221 126.781 17.9958 127.364 19.0085C127.947 20.0059 128.238 21.1643 128.238 22.4839C128.238 23.8034 127.939 24.9696 127.341 25.9822C126.758 26.9796 125.952 27.7468 124.924 28.2838C123.911 28.8208 122.776 29.0894 121.518 29.0894ZM121.518 25.683C122.27 25.683 122.906 25.4069 123.428 24.8545C123.965 24.3021 124.234 23.5119 124.234 22.4839C124.234 21.4558 123.973 20.6656 123.451 20.1133C122.945 19.5609 122.316 19.2847 121.564 19.2847C120.797 19.2847 120.16 19.5609 119.654 20.1133C119.147 20.6503 118.894 21.4405 118.894 22.4839C118.894 23.5119 119.14 24.3021 119.631 24.8545C120.137 25.4069 120.766 25.683 121.518 25.683Z" fill="#180030"/>
<path d="M137.691 28.9052L135.229 25.3378L133.157 28.9052H128.899L133.134 22.3458L128.784 16.0625H133.203L135.666 19.6069L137.737 16.0625H141.995L137.691 22.5299L142.11 28.9052H137.691Z" fill="#180030"/>
</svg>
