<svg width="142" height="41" viewBox="0 0 142 41" fill="none" xmlns="http://www.w3.org/2000/svg">
<circle cx="18.7535" cy="20.6713" r="17.4748" stroke="#180030" stroke-width="2.55729"/>
<path d="M25.6852 27.6031C22.1566 31.1317 18.1591 33.4351 14.5991 34.3506C11.0069 35.2743 8.11148 34.7425 6.39689 33.028C4.68231 31.3134 4.15057 28.418 5.07428 24.8258C5.98973 21.2657 8.29318 17.2682 11.8217 13.7397C15.3503 10.2111 19.3478 7.90767 22.9078 6.99223C26.5 6.06852 29.3954 6.60025 31.11 8.31484C32.8246 10.0294 33.3563 12.9248 32.4326 16.517C31.5172 20.0771 29.2137 24.0746 25.6852 27.6031Z" stroke="#180030" stroke-width="2.55729"/>
<path d="M25.685 13.7397C29.2136 17.2682 31.517 21.2657 32.4325 24.8258C33.3562 28.418 32.8245 31.3134 31.1099 33.028C29.3953 34.7426 26.4999 35.2743 22.9077 34.3506C19.3476 33.4351 15.3501 31.1317 11.8216 27.6031C8.29303 24.0746 5.98958 20.0771 5.07414 16.517C4.15043 12.9248 4.68216 10.0294 6.39675 8.31485C8.11133 6.60027 11.0067 6.06853 14.5989 6.99225C18.159 7.90769 22.1565 10.2111 25.685 13.7397Z" stroke="#180030" stroke-width="2.55729"/>
<path d="M53.5752 29.1872C57.5902 29.1872 60.3009 27.0902 60.3009 23.7402C60.3009 16.6565 50.8901 19.6741 50.8901 15.9404C50.8901 14.8919 51.8363 14.1759 53.3451 14.1759C55.0584 14.1759 56.1325 15.0965 56.2604 16.503H59.9173C59.815 13.1018 57.2066 10.877 53.3451 10.877C49.7137 10.877 47.1564 12.974 47.1564 15.9404C47.1564 22.973 56.4394 20.2878 56.4394 23.7913C56.4394 25.1467 55.2886 25.8627 53.5752 25.8627C51.6828 25.8627 50.4809 24.7119 50.3275 22.8963H46.645C46.7984 26.7066 49.5091 29.1872 53.5752 29.1872Z" fill="#180030"/>
<path d="M61.1706 34.1995H64.7252V27.8318C65.4157 28.7013 66.6687 29.1872 68.1264 29.1872C71.8345 29.1872 74.3406 26.5532 74.3406 22.5382C74.3406 18.5233 72.0391 15.8893 68.4333 15.8893C66.771 15.8893 65.4924 16.503 64.7252 17.5004V16.0939H61.1706V34.1995ZM67.6917 26.1185C65.7737 26.1185 64.5206 24.6864 64.5206 22.5382C64.5206 20.3646 65.7737 18.9325 67.6917 18.9325C69.5585 18.9325 70.8371 20.3646 70.8371 22.5382C70.8371 24.6864 69.5585 26.1185 67.6917 26.1185Z" fill="#180030"/>
<path d="M75.2007 28.9826H78.7553V21.9245C78.7553 20.2623 79.855 19.0603 81.4149 19.0603C82.8981 19.0603 83.9211 20.1855 83.9211 21.7455V28.9826H87.4757V20.9527C87.4757 17.9863 85.5833 15.8893 82.6936 15.8893C80.9035 15.8893 79.4969 16.6309 78.7553 17.884V10.4934H75.2007V28.9826Z" fill="#180030"/>
<path d="M97.4196 24.6097C97.1383 25.7093 96.1921 26.2719 94.76 26.2719C92.9699 26.2719 91.8191 25.1467 91.5634 23.331H100.821C100.846 23.0497 100.872 22.6661 100.872 22.1802C100.872 19.2393 99.0562 15.8893 94.5042 15.8893C90.1313 15.8893 88.1366 19.2393 88.1366 22.5127C88.1366 25.7604 90.387 29.1872 94.76 29.1872C97.931 29.1872 100.386 27.3971 100.897 24.6097H97.4196ZM94.5042 18.4977C96.2176 18.4977 97.215 19.6485 97.3173 21.0806H91.6145C91.9214 19.2905 92.8932 18.4977 94.5042 18.4977Z" fill="#180030"/>
<path d="M110.194 19.0603V16.0939H108.36C106.8 16.0939 105.829 16.6309 105.138 18.242V16.0939H101.558V28.9826H105.138V22.7173C105.138 20.518 105.931 19.0603 107.695 19.0603H110.194Z" fill="#180030"/>
<path d="M122.469 16.0939H118.889V23.152C118.889 24.7887 117.79 26.0162 116.23 26.0162C114.772 26.0162 113.749 24.891 113.749 23.331V16.0939H110.194V24.1238C110.194 27.0647 112.087 29.1872 114.977 29.1872C116.741 29.1872 118.173 28.42 118.889 27.1925V28.9826H122.469V16.0939Z" fill="#180030"/>
<path d="M124.004 28.9826H127.559V10.4934H124.004V28.9826Z" fill="#180030"/>
<path d="M137.707 24.6097C137.426 25.7093 136.479 26.2719 135.047 26.2719C133.257 26.2719 132.106 25.1467 131.851 23.331H141.108C141.134 23.0497 141.159 22.6661 141.159 22.1802C141.159 19.2393 139.344 15.8893 134.792 15.8893C130.419 15.8893 128.424 19.2393 128.424 22.5127C128.424 25.7604 130.674 29.1872 135.047 29.1872C138.218 29.1872 140.673 27.3971 141.185 24.6097H137.707ZM134.792 18.4977C136.505 18.4977 137.502 19.6485 137.605 21.0806H131.902C132.209 19.2905 133.18 18.4977 134.792 18.4977Z" fill="#180030"/>
</svg>
