<svg width="38" height="38" viewBox="0 0 38 38" fill="none" xmlns="http://www.w3.org/2000/svg">
<path d="M5.9375 16.625C5.62256 16.625 5.32051 16.4999 5.09781 16.2772C4.87511 16.0545 4.75 15.7525 4.75 15.4375V5.93988C4.75 5.62494 4.87511 5.32289 5.09781 5.10019C5.32051 4.87749 5.62256 4.75238 5.9375 4.75238H15.4375C15.7524 4.75238 16.0545 4.87749 16.2772 5.10019C16.4999 5.32289 16.625 5.62494 16.625 5.93988V15.4375C16.625 15.7525 16.4999 16.0545 16.2772 16.2772C16.0545 16.4999 15.7524 16.625 15.4375 16.625H5.9375ZM22.5625 16.625C22.2476 16.625 21.9455 16.4999 21.7228 16.2772C21.5001 16.0545 21.375 15.7525 21.375 15.4375V5.93988C21.375 5.62494 21.5001 5.32289 21.7228 5.10019C21.9455 4.87749 22.2476 4.75238 22.5625 4.75238H32.0601C32.3751 4.75238 32.6771 4.87749 32.8998 5.10019C33.1225 5.32289 33.2476 5.62494 33.2476 5.93988V15.4375C33.2476 15.7525 33.1225 16.0545 32.8998 16.2772C32.6771 16.4999 32.3751 16.625 32.0601 16.625H22.5625ZM5.9375 33.25C5.62256 33.25 5.32051 33.1249 5.09781 32.9022C4.87511 32.6795 4.75 32.3775 4.75 32.0625V22.5625C4.75 22.2476 4.87511 21.9455 5.09781 21.7228C5.32051 21.5001 5.62256 21.375 5.9375 21.375H15.4375C15.7524 21.375 16.0545 21.5001 16.2772 21.7228C16.4999 21.9455 16.625 22.2476 16.625 22.5625V32.0625C16.625 32.3775 16.4999 32.6795 16.2772 32.9022C16.0545 33.1249 15.7524 33.25 15.4375 33.25H5.9375ZM22.5625 33.25C22.2476 33.25 21.9455 33.1249 21.7228 32.9022C21.5001 32.6795 21.375 32.3775 21.375 32.0625V22.5625C21.375 22.2476 21.5001 21.9455 21.7228 21.7228C21.9455 21.5001 22.2476 21.375 22.5625 21.375H32.0601C32.3751 21.375 32.6771 21.5001 32.8998 21.7228C33.1225 21.9455 33.2476 22.2476 33.2476 22.5625V32.0625C33.2476 32.3775 33.1225 32.6795 32.8998 32.9022C32.6771 33.1249 32.3751 33.25 32.0601 33.25H22.5625Z" fill="#8000FF"/>
</svg>
