<svg width="100" height="100" viewBox="0 0 100 100" fill="none" xmlns="http://www.w3.org/2000/svg">
<g clip-path="url(#clip0_333_637)">
<rect width="100" height="100" fill="white"/>
<circle cx="50.4594" cy="50.4594" r="42.5" transform="rotate(-23.1927 50.4594 50.4594)" fill="#8000FF" fill-opacity="0.06" stroke="#8000FF"/>
<path d="M77.5755 38.8416C82.2165 49.6737 83.3457 60.7733 81.4432 69.952C79.5404 79.1328 74.62 86.3444 67.197 89.5248C59.7741 92.7051 51.1588 91.2928 43.1993 86.3376C35.2416 81.3834 27.9845 72.9093 23.3435 62.0772C18.7025 51.2451 17.5733 40.1455 19.4757 30.9668C21.3786 21.786 26.299 14.5744 33.7219 11.394C41.1449 8.21364 49.7602 9.62594 57.7196 14.5812C65.6773 19.5353 72.9344 28.0094 77.5755 38.8416Z" stroke="#8000FF"/>
<path d="M62.8684 45.1428C67.5299 56.0226 70.3055 66.469 71.0354 74.5541C71.4006 78.5995 71.2508 82.0247 70.5878 84.6079C69.9226 87.1997 68.7679 88.8518 67.197 89.5248C65.6261 90.1979 63.6334 89.8943 61.2981 88.5881C58.9706 87.2862 56.3874 85.0319 53.7105 81.977C48.3604 75.8714 42.7119 66.6558 38.0504 55.7761C33.389 44.8963 30.6133 34.4499 29.8835 26.3648C29.5183 22.3193 29.668 18.8941 30.331 16.3109C30.9962 13.7192 32.151 12.0671 33.7219 11.394C35.2928 10.721 37.2854 11.0246 39.6207 12.3308C41.9483 13.6327 44.5314 15.8869 47.2084 18.9419C52.5585 25.0475 58.207 34.263 62.8684 45.1428Z" stroke="#8000FF"/>
<path d="M55.776 62.8684C44.8963 67.5299 34.4498 70.3055 26.3647 71.0354C22.3193 71.4006 18.8941 71.2508 16.3109 70.5878C13.7191 69.9226 12.067 68.7679 11.394 67.197C10.721 65.6261 11.0245 63.6334 12.3307 61.2981C13.6326 58.9706 15.8869 56.3874 18.9419 53.7105C25.0474 48.3604 34.263 42.7119 45.1428 38.0504C56.0225 33.389 66.469 30.6133 74.5541 29.8835C78.5995 29.5183 82.0247 29.668 84.6079 30.331C87.1997 30.9962 88.8517 32.151 89.5248 33.7219C90.1978 35.2928 89.8943 37.2854 88.588 39.6207C87.2862 41.9483 85.0319 44.5314 81.9769 47.2084C75.8713 52.5585 66.6558 58.207 55.776 62.8684Z" stroke="#8000FF"/>
</g>
<defs>
<clipPath id="clip0_333_637">
<rect width="100" height="100" fill="white"/>
</clipPath>
</defs>
</svg>
