<svg width="30" height="30" viewBox="0 0 30 30" fill="none" xmlns="http://www.w3.org/2000/svg">
<path fill-rule="evenodd" clip-rule="evenodd" d="M15 2.8125C11.7208 2.8125 9.0625 5.47081 9.0625 8.75H9C6.79086 8.75 5 10.5409 5 12.75V22.25C5 24.4591 6.79086 26.25 9 26.25H21C23.2091 26.25 25 24.4591 25 22.25V12.75C25 10.5409 23.2091 8.75 21 8.75H20.9375C20.9375 5.47081 18.2792 2.8125 15 2.8125ZM19.0625 8.75C19.0625 6.50634 17.2437 4.6875 15 4.6875C12.7563 4.6875 10.9375 6.50634 10.9375 8.75H19.0625ZM17.5 17.5C17.5 18.8807 16.3807 20 15 20C13.6193 20 12.5 18.8807 12.5 17.5C12.5 16.1193 13.6193 15 15 15C16.3807 15 17.5 16.1193 17.5 17.5Z" fill="#8000FF"/>
</svg>
