<svg width="130" height="34" viewBox="0 0 130 34" fill="none" xmlns="http://www.w3.org/2000/svg">
<path d="M51 9.7796V6H69.3079V9.7796H62.4832V27.6824H57.8246V9.7796H51Z" fill="white"/>
<path d="M75.898 28C74.1782 28 72.6979 27.6612 71.4571 26.9836C70.2235 26.299 69.2729 25.332 68.6053 24.0828C67.9377 22.8264 67.6039 21.3407 67.6039 19.6256C67.6039 17.9528 67.9377 16.4848 68.6053 15.2214C69.2729 13.958 70.2126 12.9734 71.4244 12.2676C72.6435 11.5618 74.073 11.2089 75.7129 11.2089C76.8159 11.2089 77.8427 11.3818 78.7933 11.7276C79.7511 12.0664 80.5856 12.5781 81.2967 13.2628C82.0151 13.9474 82.5739 14.8085 82.973 15.846C83.3721 16.8765 83.5716 18.0834 83.5716 19.4668V20.7055H69.4543V17.9105H79.2069C79.2069 17.2611 79.0618 16.6859 78.7715 16.1848C78.4812 15.6837 78.0785 15.2919 77.5633 15.0096C77.0554 14.7202 76.464 14.5756 75.7891 14.5756C75.0853 14.5756 74.4612 14.7344 73.917 15.052C73.38 15.3625 72.9591 15.7825 72.6544 16.3118C72.3496 16.8341 72.1936 17.4164 72.1863 18.0587V20.7161C72.1863 21.5207 72.3387 22.2159 72.6435 22.8017C72.9555 23.3876 73.3945 23.8393 73.9605 24.1569C74.5265 24.4745 75.1977 24.6333 75.9742 24.6333C76.4894 24.6333 76.961 24.5627 77.3892 24.4216C77.8173 24.2804 78.1837 24.0687 78.4885 23.7863C78.7933 23.504 79.0255 23.1582 79.1851 22.7488L83.4736 23.0241C83.256 24.0263 82.8097 24.9015 82.1348 25.6497C81.4673 26.3908 80.6037 26.9695 79.5443 27.3859C78.4921 27.7953 77.2767 28 75.898 28Z" fill="white"/>
<path d="M92.6189 28C90.9064 28 89.4333 27.6471 88.1997 26.9413C86.9734 26.2284 86.0301 25.2403 85.3697 23.9769C84.7167 22.7135 84.3901 21.2595 84.3901 19.615C84.3901 17.9493 84.7203 16.4883 85.3806 15.232C86.0482 13.9686 86.9952 12.984 88.2215 12.2782C89.4478 11.5653 90.9064 11.2089 92.5971 11.2089C94.0556 11.2089 95.3328 11.4665 96.4285 11.9817C97.5242 12.497 98.3913 13.2204 99.0299 14.1521C99.6685 15.0837 100.02 16.1777 100.086 17.4341H95.7101C95.5867 16.6224 95.2602 15.9695 94.7305 15.4755C94.208 14.9743 93.5223 14.7238 92.6733 14.7238C91.9549 14.7238 91.3272 14.9143 90.7903 15.2955C90.2606 15.6696 89.8469 16.2166 89.5494 16.9365C89.2519 17.6564 89.1032 18.5281 89.1032 19.5515C89.1032 20.589 89.2483 21.4713 89.5385 22.1983C89.8361 22.9252 90.2533 23.4793 90.7903 23.8604C91.3272 24.2416 91.9549 24.4321 92.6733 24.4321C93.203 24.4321 93.6783 24.3263 94.0992 24.1145C94.5273 23.9028 94.8793 23.5958 95.155 23.1935C95.438 22.7841 95.623 22.2936 95.7101 21.7218H100.086C100.013 22.9641 99.6648 24.0581 99.0408 25.0038C98.424 25.9426 97.5714 26.6766 96.4829 27.206C95.3945 27.7353 94.1064 28 92.6189 28Z" fill="white"/>
<path d="M106.159 18.281V27.6824H101.522V6H106.028V14.2897H106.224C106.601 13.3298 107.211 12.5781 108.053 12.0346C108.894 11.4841 109.95 11.2089 111.22 11.2089C112.381 11.2089 113.393 11.4559 114.257 11.95C115.128 12.437 115.803 13.1392 116.281 14.0568C116.768 14.9673 117.007 16.0577 117 17.3282V27.6824H112.363V18.1328C112.37 17.1306 112.109 16.3507 111.579 15.7931C111.057 15.2355 110.324 14.9567 109.381 14.9567C108.749 14.9567 108.191 15.0873 107.704 15.3484C107.225 15.6096 106.848 15.9907 106.572 16.4918C106.304 16.9859 106.166 17.5823 106.159 18.281Z" fill="white"/>
<path fill-rule="evenodd" clip-rule="evenodd" d="M41.362 0H17.7266C16.7304 0 15.7721 0.369964 15.0493 1.03367L1.12999 13.8135C-1.2305 15.9808 0.353563 19.8277 3.60649 19.8277H19.8638C20.743 19.8277 21.1711 18.788 20.5332 18.2023L16.8169 14.7902C14.903 13.033 16.1874 9.91386 18.8249 9.91386H31.4525C32.4487 9.91386 33.4069 9.5439 34.1298 8.88019L42.0313 1.62545C42.6693 1.0397 42.2412 0 41.362 0ZM3.53686 33.6742H27.1723C28.1685 33.6742 29.1267 33.3042 29.8496 32.6405L43.7689 19.8606C46.1294 17.6933 44.5453 13.8464 41.2924 13.8464H25.035C24.1559 13.8464 23.7278 14.8861 24.3657 15.4719L28.082 18.8839C29.9959 20.6412 28.7115 23.7603 26.074 23.7603H13.4464C12.4502 23.7603 11.4919 24.1303 10.7691 24.794L2.86754 32.0487C2.22957 32.6345 2.65769 33.6742 3.53686 33.6742Z" fill="#8000FF"/>
</svg>
