<svg width="128" height="44" viewBox="0 0 128 44" fill="none" xmlns="http://www.w3.org/2000/svg">
<path d="M63.057 14.1598V18.0096H52V14.1598H63.057ZM54.5102 9.73244H59.6025V26.9605C59.6025 27.4338 59.6742 27.8027 59.8176 28.0674C59.9611 28.324 60.1603 28.5045 60.4153 28.6088C60.6783 28.713 60.9811 28.7652 61.3238 28.7652C61.5629 28.7652 61.8019 28.7451 62.041 28.705C62.2801 28.6569 62.4634 28.6208 62.5909 28.5967L63.3917 32.4105C63.1367 32.4907 62.7781 32.5829 62.3159 32.6872C61.8537 32.7995 61.2919 32.8677 60.6305 32.8917C59.4032 32.9398 58.3274 32.7754 57.403 32.3985C56.4866 32.0215 55.7733 31.436 55.2633 30.642C54.7533 29.8479 54.5023 28.8454 54.5102 27.6343V9.73244Z" fill="#180030"/>
<path d="M72.8614 33C70.9727 33 69.347 32.615 67.9843 31.845C66.6296 31.0671 65.5856 29.9682 64.8525 28.5486C64.1193 27.1209 63.7527 25.4326 63.7527 23.4836C63.7527 21.5828 64.1193 19.9145 64.8525 18.4788C65.5856 17.0432 66.6176 15.9243 67.9484 15.1222C69.2872 14.3202 70.8571 13.9192 72.6582 13.9192C73.8694 13.9192 74.9971 14.1157 76.041 14.5087C77.0929 14.8936 78.0094 15.4751 78.7903 16.2531C79.5793 17.0311 80.1929 18.0096 80.6312 19.1886C81.0695 20.3596 81.2886 21.7312 81.2886 23.3032V24.7108H65.7849V21.5346H76.4952C76.4952 20.7968 76.3359 20.1431 76.0171 19.5736C75.6983 19.0042 75.2561 18.559 74.6903 18.2382C74.1324 17.9094 73.4829 17.7449 72.7418 17.7449C71.9688 17.7449 71.2835 17.9254 70.6858 18.2863C70.0961 18.6392 69.6339 19.1165 69.2992 19.718C68.9645 20.3115 68.7932 20.9732 68.7852 21.7031V24.7228C68.7852 25.6372 68.9525 26.4272 69.2872 27.0929C69.6299 27.7586 70.112 28.2719 70.7336 28.6328C71.3552 28.9937 72.0924 29.1742 72.945 29.1742C73.5108 29.1742 74.0288 29.094 74.499 28.9336C74.9692 28.7732 75.3716 28.5326 75.7063 28.2117C76.041 27.8909 76.296 27.4979 76.4713 27.0327L81.181 27.3455C80.942 28.4844 80.4519 29.479 79.7108 30.3292C78.9776 31.1713 78.0293 31.829 76.8658 32.3022C75.7103 32.7674 74.3755 33 72.8614 33Z" fill="#180030"/>
<path d="M91.2244 33C89.3437 33 87.726 32.599 86.3713 31.7969C85.0245 30.9868 83.9885 29.864 83.2634 28.4283C82.5461 26.9926 82.1875 25.3404 82.1875 23.4716C82.1875 21.5788 82.5501 19.9185 83.2753 18.4909C84.0085 17.0552 85.0484 15.9363 86.3952 15.1343C87.742 14.3242 89.3437 13.9192 91.2005 13.9192C92.8023 13.9192 94.2049 14.2119 95.4082 14.7974C96.6115 15.3829 97.5638 16.205 98.2651 17.2637C98.9664 18.3224 99.3529 19.5656 99.4246 20.9933H94.6192C94.4838 20.0709 94.1252 19.329 93.5434 18.7676C92.9697 18.1981 92.2166 17.9134 91.2842 17.9134C90.4953 17.9134 89.8059 18.1299 89.2162 18.563C88.6345 18.9881 88.1803 19.6097 87.8535 20.4278C87.5268 21.2459 87.3634 22.2364 87.3634 23.3994C87.3634 24.5784 87.5228 25.581 87.8416 26.4071C88.1683 27.2332 88.6265 27.8629 89.2162 28.296C89.8059 28.7291 90.4953 28.9456 91.2842 28.9456C91.8659 28.9456 92.3879 28.8253 92.8501 28.5847C93.3203 28.3441 93.7068 27.9952 94.0096 27.538C94.3204 27.0728 94.5236 26.5154 94.6192 25.8657H99.4246C99.3449 27.2773 98.9624 28.5205 98.277 29.5953C97.5997 30.662 96.6633 31.4962 95.4679 32.0977C94.2726 32.6992 92.8581 33 91.2244 33Z" fill="#180030"/>
<path d="M106.094 21.9557V32.6391H101.002V8H105.951V17.4201H106.166C106.58 16.3293 107.25 15.4751 108.174 14.8576C109.098 14.232 110.258 13.9192 111.652 13.9192C112.928 13.9192 114.039 14.1999 114.988 14.7613C115.944 15.3147 116.685 16.1128 117.211 17.1554C117.745 18.1901 118.008 19.4293 118 20.873V32.6391H112.908V21.7873C112.916 20.6484 112.629 19.7621 112.047 19.1285C111.473 18.4949 110.668 18.1781 109.632 18.1781C108.939 18.1781 108.325 18.3264 107.791 18.6232C107.266 18.92 106.851 19.3531 106.548 19.9225C106.253 20.484 106.102 21.1617 106.094 21.9557Z" fill="#180030"/>
<path fill-rule="evenodd" clip-rule="evenodd" d="M41.6771 5H20.1473C19.2399 5 18.367 5.337 17.7085 5.94158L5.02932 17.5829C2.87912 19.5571 4.32206 23.0613 7.28519 23.0613H22.0942C22.895 23.0613 23.285 22.1142 22.7039 21.5806L19.3187 18.4726C17.5753 16.8719 18.7452 14.0306 21.1478 14.0306H32.6504C33.5579 14.0306 34.4307 13.6936 35.0892 13.0891L42.2868 6.48064C42.8679 5.94708 42.478 5 41.6771 5ZM7.22176 35.6742H28.7516C29.659 35.6742 30.5319 35.3372 31.1903 34.7326L43.8696 23.0912C46.0198 21.1171 44.5768 17.6129 41.6137 17.6129H26.8047C26.0039 17.6129 25.6139 18.5599 26.195 19.0935L29.5802 22.2016C31.3236 23.8023 30.1536 26.6435 27.7511 26.6435H16.2484C15.341 26.6435 14.4681 26.9805 13.8097 27.5851L6.61207 34.1935C6.03094 34.7271 6.42092 35.6742 7.22176 35.6742Z" fill="#8000FF"/>
<path fill-rule="evenodd" clip-rule="evenodd" d="M41.6771 5H20.1473C19.2399 5 18.367 5.337 17.7085 5.94158L5.02932 17.5829C2.87912 19.5571 4.32206 23.0613 7.28519 23.0613H22.0942C22.895 23.0613 23.285 22.1142 22.7039 21.5806L19.3187 18.4726C17.5753 16.8719 18.7452 14.0306 21.1478 14.0306H32.6504C33.5579 14.0306 34.4307 13.6936 35.0892 13.0891L42.2868 6.48064C42.8679 5.94708 42.478 5 41.6771 5ZM7.22176 35.6742H28.7516C29.659 35.6742 30.5319 35.3372 31.1903 34.7326L43.8696 23.0912C46.0198 21.1171 44.5768 17.6129 41.6137 17.6129H26.8047C26.0039 17.6129 25.6139 18.5599 26.195 19.0935L29.5802 22.2016C31.3236 23.8023 30.1536 26.6435 27.7511 26.6435H16.2484C15.341 26.6435 14.4681 26.9805 13.8097 27.5851L6.61207 34.1935C6.03094 34.7271 6.42092 35.6742 7.22176 35.6742Z" fill="white"/>
<path d="M63.057 14.1598V18.0096H52V14.1598H63.057ZM54.5102 9.73244H59.6025V26.9605C59.6025 27.4337 59.6742 27.8027 59.8176 28.0674C59.9611 28.324 60.1603 28.5045 60.4153 28.6088C60.6783 28.713 60.9811 28.7652 61.3238 28.7652C61.5629 28.7652 61.8019 28.7451 62.041 28.705C62.2801 28.6569 62.4634 28.6208 62.5909 28.5967L63.3917 32.4105C63.1367 32.4907 62.7781 32.5829 62.3159 32.6872C61.8537 32.7995 61.2919 32.8677 60.6305 32.8917C59.4032 32.9398 58.3274 32.7754 57.403 32.3985C56.4866 32.0215 55.7733 31.436 55.2633 30.642C54.7533 29.8479 54.5023 28.8454 54.5102 27.6343V9.73244Z" fill="white"/>
<path d="M72.8614 33C70.9727 33 69.347 32.615 67.9843 31.845C66.6296 31.0671 65.5856 29.9682 64.8525 28.5486C64.1193 27.1209 63.7527 25.4326 63.7527 23.4836C63.7527 21.5828 64.1193 19.9145 64.8525 18.4788C65.5856 17.0432 66.6176 15.9243 67.9484 15.1222C69.2872 14.3202 70.8571 13.9192 72.6582 13.9192C73.8694 13.9192 74.9971 14.1157 76.041 14.5087C77.0929 14.8936 78.0094 15.4751 78.7903 16.2531C79.5793 17.0311 80.1929 18.0096 80.6312 19.1886C81.0695 20.3596 81.2886 21.7312 81.2886 23.3032V24.7108H65.7849V21.5346H76.4952C76.4952 20.7968 76.3359 20.1431 76.0171 19.5736C75.6983 19.0042 75.2561 18.559 74.6903 18.2382C74.1324 17.9094 73.4829 17.7449 72.7418 17.7449C71.9688 17.7449 71.2835 17.9254 70.6858 18.2863C70.0961 18.6392 69.6339 19.1165 69.2992 19.718C68.9645 20.3115 68.7932 20.9732 68.7852 21.7031V24.7228C68.7852 25.6372 68.9525 26.4272 69.2872 27.0929C69.6299 27.7586 70.112 28.2719 70.7336 28.6328C71.3552 28.9937 72.0923 29.1742 72.945 29.1742C73.5108 29.1742 74.0288 29.094 74.499 28.9336C74.9692 28.7732 75.3716 28.5326 75.7063 28.2117C76.041 27.8909 76.296 27.4979 76.4713 27.0327L81.181 27.3455C80.942 28.4844 80.4519 29.479 79.7108 30.3292C78.9776 31.1713 78.0293 31.829 76.8658 32.3022C75.7103 32.7674 74.3755 33 72.8614 33Z" fill="white"/>
<path d="M91.2244 33C89.3437 33 87.726 32.599 86.3713 31.7969C85.0245 30.9868 83.9885 29.864 83.2634 28.4283C82.5461 26.9926 82.1875 25.3404 82.1875 23.4716C82.1875 21.5788 82.5501 19.9185 83.2753 18.4909C84.0085 17.0552 85.0484 15.9363 86.3952 15.1343C87.742 14.3242 89.3437 13.9192 91.2005 13.9192C92.8023 13.9192 94.2049 14.2119 95.4082 14.7974C96.6115 15.3829 97.5638 16.205 98.2651 17.2637C98.9664 18.3224 99.3529 19.5656 99.4246 20.9933H94.6192C94.4838 20.0709 94.1252 19.329 93.5434 18.7676C92.9696 18.1981 92.2166 17.9134 91.2842 17.9134C90.4953 17.9134 89.8059 18.1299 89.2162 18.563C88.6345 18.9881 88.1803 19.6097 87.8535 20.4278C87.5268 21.2459 87.3634 22.2364 87.3634 23.3994C87.3634 24.5784 87.5228 25.581 87.8416 26.4071C88.1683 27.2332 88.6265 27.8629 89.2162 28.296C89.8059 28.7291 90.4953 28.9456 91.2842 28.9456C91.8659 28.9456 92.3879 28.8253 92.8501 28.5847C93.3203 28.3441 93.7068 27.9952 94.0096 27.538C94.3204 27.0728 94.5236 26.5154 94.6192 25.8657H99.4246C99.3449 27.2773 98.9624 28.5205 98.277 29.5953C97.5997 30.662 96.6633 31.4962 95.4679 32.0977C94.2726 32.6992 92.8581 33 91.2244 33Z" fill="white"/>
<path d="M106.094 21.9557V32.6391H101.002V8H105.951V17.4201H106.166C106.58 16.3293 107.25 15.4751 108.174 14.8576C109.098 14.232 110.258 13.9192 111.652 13.9192C112.928 13.9192 114.039 14.1999 114.988 14.7613C115.944 15.3147 116.685 16.1128 117.211 17.1554C117.745 18.1901 118.008 19.4293 118 20.873V32.6391H112.908V21.7873C112.916 20.6484 112.629 19.7621 112.047 19.1285C111.473 18.4949 110.668 18.1781 109.632 18.1781C108.939 18.1781 108.325 18.3264 107.791 18.6232C107.266 18.92 106.851 19.3531 106.548 19.9225C106.253 20.484 106.102 21.1617 106.094 21.9557Z" fill="white"/>
</svg>
