<svg width="587" height="553" viewBox="0 0 587 553" fill="none" xmlns="http://www.w3.org/2000/svg">
<path fill-rule="evenodd" clip-rule="evenodd" d="M527.865 1H139.37C122.996 1 107.246 7.05361 95.3637 17.9137L-133.426 227.027C-172.226 262.489 -146.189 325.435 -92.7204 325.435H174.501C188.951 325.435 195.988 308.423 185.502 298.838L124.418 243.008C92.9595 214.255 114.071 163.217 157.423 163.217H364.983C381.357 163.217 397.108 157.164 408.99 146.304L538.867 27.5968C549.353 18.0124 542.316 1 527.865 1ZM-93.8648 552H294.63C311.004 552 326.754 545.946 338.636 535.086L567.427 325.973C606.226 290.511 580.189 227.565 526.72 227.565H259.499C245.049 227.565 238.012 244.577 248.498 254.162L309.582 309.992C341.041 338.745 319.929 389.783 276.577 389.783H69.0171C52.643 389.783 36.8924 395.836 25.0105 406.696L-104.866 525.403C-115.353 534.988 -108.316 552 -93.8648 552Z" stroke="white" stroke-opacity="0.1"/>
</svg>
