<svg width="71" height="53" viewBox="0 0 71 53" fill="none" xmlns="http://www.w3.org/2000/svg">
<path fill-rule="evenodd" clip-rule="evenodd" d="M65.4071 0H28.0316C26.4563 0 24.941 0.582289 23.7979 1.6269L1.78688 21.7412C-1.94583 25.1523 0.5591 31.207 5.70305 31.207H31.4113C32.8016 31.207 33.4786 29.5706 32.4697 28.6487L26.5931 23.2784C23.5666 20.5127 25.5976 15.6035 29.7684 15.6035H49.7368C51.3121 15.6035 52.8274 15.0212 53.9705 13.9766L66.4655 2.55831C67.4743 1.6364 66.7973 0 65.4071 0ZM5.59295 53H42.9684C44.5437 53 46.059 52.4177 47.2021 51.3731L69.2131 31.2588C72.9458 27.8477 70.4409 21.793 65.297 21.793H39.5887C38.1984 21.793 37.5214 23.4294 38.5303 24.3513L44.4069 29.7216C47.4334 32.4873 45.4024 37.3965 41.2316 37.3965H21.2632C19.6879 37.3965 18.1726 37.9788 17.0295 39.0234L4.53452 50.4417C3.52568 51.3636 4.20269 53 5.59295 53Z" fill="white"/>
</svg>
