<svg width="28" height="17" viewBox="0 0 28 17" fill="none" xmlns="http://www.w3.org/2000/svg">
<path d="M28 15.7918C28 16.4596 27.3756 17 26.607 17H15.393C15.0236 17 14.6692 16.8727 14.408 16.6461C14.1468 16.4195 14 16.1122 14 15.7918C14 15.4713 14.1468 15.164 14.408 14.9374C14.6692 14.7109 15.0236 14.5836 15.393 14.5836H26.607C27.377 14.5836 28 15.1239 28 15.7918ZM28 8.5C28 9.16786 27.3756 9.70821 26.607 9.70821H1.393C1.02355 9.70821 0.669238 9.58092 0.408 9.35434C0.146762 9.12775 0 8.82044 0 8.5C0 8.17956 0.146762 7.87225 0.408 7.64566C0.669238 7.41908 1.02355 7.29179 1.393 7.29179H26.607C27.377 7.29179 28 7.83336 28 8.5ZM26.607 2.41643C26.9764 2.41643 27.3308 2.28913 27.592 2.06255C27.8532 1.83597 28 1.52865 28 1.20821C28 0.887776 27.8532 0.580462 27.592 0.353878C27.3308 0.127293 26.9764 9.54981e-09 26.607 0H9.793C9.61007 -4.72858e-09 9.42893 0.0312514 9.25992 0.0919698C9.09092 0.152688 8.93735 0.241684 8.808 0.353878C8.67865 0.466071 8.57604 0.599264 8.50604 0.745851C8.43603 0.892438 8.4 1.04955 8.4 1.20821C8.4 1.36688 8.43603 1.52399 8.50604 1.67058C8.57604 1.81717 8.67865 1.95036 8.808 2.06255C8.93735 2.17474 9.09092 2.26374 9.25992 2.32446C9.42893 2.38518 9.61007 2.41643 9.793 2.41643H26.607Z" fill="white"/>
</svg>
